<svg width="14" height="12" viewBox="0 0 14 12" fill="none" xmlns="http://www.w3.org/2000/svg">
<path d="M9.11798 4.50887L6.46293 2.40696C6.30002 2.27804 6.0791 2.20565 5.84876 2.20569C5.61842 2.20573 5.39754 2.27821 5.2347 2.40718C5.07186 2.53616 4.98041 2.71106 4.98047 2.89341C4.98052 3.07576 5.07208 3.25063 5.23499 3.37954L7.89004 5.481C7.917 5.50228 7.93838 5.52757 7.95298 5.55541C7.96757 5.58326 7.97508 5.6131 7.97508 5.64325C7.97508 5.67339 7.96757 5.70324 7.95298 5.73108C7.93838 5.75892 7.917 5.78421 7.89004 5.8055L5.23499 7.90695C5.07208 8.03587 4.98052 8.21073 4.98047 8.39309C4.98041 8.57544 5.07186 8.75034 5.2347 8.87931C5.39754 9.00828 5.61842 9.08076 5.84876 9.08081C6.0791 9.08085 6.30002 9.00845 6.46293 8.87954L9.11798 6.77762C9.49733 6.47648 9.71035 6.06854 9.71035 5.64325C9.71035 5.21795 9.49733 4.81001 9.11798 4.50887Z" fill="#722282"/>
</svg>
