<svg width="12" height="13" viewBox="0 0 12 13" fill="none" xmlns="http://www.w3.org/2000/svg">
<path d="M9.19698 5.15011C9.12977 5.08286 9.04997 5.02952 8.96214 4.99312C8.87431 4.95672 8.78017 4.93799 8.68509 4.93799C8.59002 4.93799 8.49588 4.95672 8.40804 4.99312C8.32021 5.02952 8.24041 5.08286 8.17321 5.15011L5.96066 7.36218C5.91543 7.4074 5.85408 7.4328 5.79012 7.4328C5.72615 7.4328 5.6648 7.4074 5.61957 7.36218L3.40751 5.15011C3.27181 5.01435 3.08774 4.93806 2.89579 4.93801C2.70384 4.93797 2.51974 5.01418 2.38398 5.14987C2.24822 5.28557 2.17192 5.46964 2.17188 5.66159C2.17183 5.85354 2.24804 6.03764 2.38373 6.1734L4.59628 8.38595C4.75308 8.54277 4.93924 8.66716 5.14412 8.75203C5.349 8.8369 5.56859 8.88059 5.79036 8.88059C6.01212 8.88059 6.23171 8.8369 6.43659 8.75203C6.64148 8.66716 6.82763 8.54277 6.98444 8.38595L9.19698 6.1734C9.33265 6.03769 9.40886 5.85365 9.40886 5.66176C9.40886 5.46986 9.33265 5.28583 9.19698 5.15011Z" fill="#722282"/>
</svg>
