<svg width="25" height="25" viewBox="0 0 25 25" fill="none" xmlns="http://www.w3.org/2000/svg">
<g clip-path="url(#clip0_733_1600)">
<path d="M24.211 11.1499L21.2528 8.18793C21.8019 8.05152 22.312 7.79002 22.7432 7.42384C23.1745 7.05767 23.5153 6.59674 23.739 6.07706C23.9627 5.55739 24.0632 4.99303 24.0326 4.42809C24.0021 3.86315 23.8414 3.31291 23.563 2.82037C23.2846 2.32782 22.8961 1.9063 22.4279 1.58874C21.9597 1.27118 21.4244 1.06617 20.8638 0.989731C20.3032 0.913291 19.7325 0.96749 19.1964 1.14809C18.6602 1.3287 18.173 1.63082 17.773 2.03085C17.3011 2.50293 16.9681 3.09569 16.8104 3.7443L13.8534 0.788597C13.5487 0.485392 13.1362 0.315186 12.7063 0.315186C12.2764 0.315186 11.864 0.485392 11.5592 0.788597L7.20878 5.139C7.1668 5.18079 7.13349 5.23046 7.11076 5.28516C7.08803 5.33986 7.07633 5.39851 7.07633 5.45775C7.07633 5.51698 7.08803 5.57564 7.11076 5.63034C7.13349 5.68504 7.1668 5.73471 7.20878 5.7765L7.73038 6.2981C7.78251 6.35109 7.84697 6.39034 7.91799 6.41232C7.989 6.43431 8.06436 6.43835 8.13732 6.42409C8.5794 6.33709 9.03757 6.38883 9.44912 6.57222C9.86067 6.75562 10.2055 7.0617 10.4364 7.44859C10.6673 7.83549 10.773 8.28428 10.7391 8.73356C10.7051 9.18284 10.5332 9.61066 10.2468 9.95846C9.96033 10.3063 9.57342 10.5571 9.13899 10.6765C8.70456 10.796 8.24382 10.7783 7.81983 10.6259C7.39584 10.4734 7.02931 10.1937 6.7704 9.82495C6.5115 9.4562 6.37286 9.01646 6.37348 8.5659C6.37301 8.42292 6.38694 8.28025 6.41505 8.14006C6.42909 8.06709 6.42494 7.9918 6.40297 7.92082C6.38099 7.84985 6.34187 7.78538 6.28906 7.73311L5.76747 7.21152C5.6829 7.12704 5.56825 7.07959 5.44872 7.07959C5.32918 7.07959 5.21454 7.12704 5.12996 7.21152L0.788383 11.5607C0.484871 11.8653 0.314453 12.2778 0.314453 12.7078C0.314453 13.1378 0.484871 13.5503 0.788383 13.8549L3.74535 16.8119C3.11291 16.9672 2.53314 17.2878 2.06545 17.741C1.59776 18.1941 1.25898 18.7635 1.08383 19.3907C0.908673 20.018 0.903448 20.6805 1.06869 21.3104C1.23393 21.9403 1.56369 22.5149 2.02417 22.9754C2.48465 23.4359 3.0593 23.7657 3.6892 23.9309C4.31911 24.0961 4.98163 24.0909 5.60885 23.9158C6.23608 23.7406 6.80545 23.4018 7.25861 22.9341C7.71178 22.4665 8.03243 21.8867 8.18772 21.2543L11.1447 24.2112C11.4493 24.5147 11.8618 24.6851 12.2918 24.6851C12.7218 24.6851 13.1343 24.5147 13.4389 24.2112L17.7893 19.8608C17.8738 19.7762 17.9213 19.6616 17.9213 19.5421C17.9213 19.4225 17.8738 19.3079 17.7893 19.2233L17.2677 18.7017C17.2155 18.6488 17.1511 18.6096 17.0801 18.5876C17.0091 18.5657 16.9338 18.5616 16.8608 18.5757C16.4014 18.667 15.9247 18.608 15.5013 18.4076C15.078 18.2072 14.7303 17.8759 14.5096 17.4627C14.2889 17.0496 14.207 16.5764 14.2759 16.113C14.3448 15.6497 14.5608 15.2208 14.8922 14.8897C15.2235 14.5586 15.6526 14.3428 16.116 14.2743C16.5793 14.2057 17.0525 14.288 17.4655 14.509C17.8785 14.73 18.2096 15.0779 18.4097 15.5014C18.6098 15.925 18.6683 16.4016 18.5768 16.861C18.5627 16.9338 18.5669 17.0089 18.5889 17.0797C18.6108 17.1504 18.65 17.2147 18.7028 17.2667L19.2244 17.7883C19.3089 17.8728 19.4236 17.9202 19.5431 17.9202C19.6626 17.9202 19.7773 17.8728 19.8619 17.7883L24.2123 13.4379C24.5155 13.1331 24.6857 12.7207 24.6857 12.2908C24.6857 11.8608 24.5155 11.4484 24.2123 11.1436L24.211 11.1499ZM23.5735 12.8029L19.5418 16.8346L19.499 16.7917C19.5134 16.6734 19.5209 16.5544 19.5217 16.4352C19.5253 15.8042 19.3366 15.1871 18.9808 14.6661C18.6249 14.145 18.1188 13.7447 17.5298 13.5184C16.9408 13.2921 16.2969 13.2506 15.6837 13.3994C15.0705 13.5482 14.5172 13.8803 14.0975 14.3514C13.6777 14.8224 13.4114 15.4102 13.3339 16.0364C13.2565 16.6626 13.3717 17.2975 13.6641 17.8567C13.9565 18.4158 14.4123 18.8726 14.9707 19.1663C15.5292 19.4599 16.1639 19.5765 16.7902 19.5005L16.8331 19.5433L12.8014 23.575C12.6658 23.7092 12.4827 23.7845 12.2918 23.7845C12.101 23.7845 11.9178 23.7092 11.7822 23.575L8.16504 19.9566C8.10158 19.8932 8.02067 19.8501 7.93263 19.8329C7.84459 19.8158 7.75343 19.8252 7.67079 19.8601C7.58816 19.895 7.5178 19.9538 7.46872 20.0288C7.41964 20.1039 7.39406 20.1919 7.39525 20.2816C7.39525 20.3169 7.39525 20.3471 7.39525 20.3723C7.39525 20.9205 7.23269 21.4564 6.92812 21.9122C6.62356 22.368 6.19067 22.7233 5.68419 22.9331C5.17772 23.1429 4.62041 23.1978 4.08275 23.0908C3.54508 22.9839 3.0512 22.7199 2.66356 22.3323C2.27592 21.9446 2.01194 21.4507 1.90499 20.9131C1.79804 20.3754 1.85293 19.8181 2.06272 19.3116C2.27251 18.8051 2.62777 18.3723 3.08358 18.0677C3.5394 17.7631 4.07529 17.6006 4.62349 17.6006H4.71294C4.80302 17.6031 4.89177 17.5785 4.96776 17.5301C5.04376 17.4816 5.1035 17.4115 5.13929 17.3288C5.17508 17.2461 5.18528 17.1546 5.16857 17.0661C5.15187 16.9775 5.10902 16.896 5.04555 16.832L1.42589 13.2187C1.29163 13.083 1.21632 12.8999 1.21632 12.709C1.21632 12.5182 1.29163 12.3351 1.42589 12.1994L5.45754 8.16777L5.50037 8.21061C5.48607 8.32893 5.4785 8.44798 5.47769 8.56716C5.47367 9.19886 5.66224 9.8168 6.01826 10.3386C6.37429 10.8605 6.88087 11.2614 7.47052 11.4881C8.06018 11.7148 8.7049 11.7564 9.3188 11.6074C9.9327 11.4584 10.4866 11.1259 10.9068 10.6542C11.3269 10.1825 11.5934 9.59389 11.6706 8.96691C11.7478 8.33993 11.6322 7.7043 11.3391 7.14471C11.0459 6.58511 10.5893 6.12812 10.0299 5.83462C9.47046 5.54112 8.83491 5.42504 8.20788 5.50185L8.16504 5.45901L12.1967 1.42736C12.3323 1.2931 12.5155 1.21779 12.7063 1.21779C12.8972 1.21779 13.0803 1.2931 13.2159 1.42736L16.8331 5.04451C16.8974 5.10833 16.9793 5.15133 17.0684 5.16791C17.1574 5.18448 17.2494 5.17386 17.3323 5.13742C17.4153 5.10099 17.4853 5.04043 17.5333 4.96364C17.5814 4.88684 17.6052 4.79736 17.6016 4.70686C17.6016 4.6825 17.6016 4.65604 17.6016 4.62748C17.6016 4.07928 17.7642 3.54339 18.0687 3.08758C18.3733 2.63176 18.8062 2.2765 19.3127 2.06671C19.8191 1.85692 20.3764 1.80203 20.9141 1.90898C21.4518 2.01593 21.9457 2.27992 22.3333 2.66755C22.7209 3.05519 22.9849 3.54907 23.0919 4.08674C23.1988 4.62441 23.1439 5.18172 22.9341 5.68819C22.7244 6.19466 22.3691 6.62755 21.9133 6.93212C21.4575 7.23668 20.9216 7.39924 20.3734 7.39924H20.289C20.1989 7.39676 20.1101 7.42132 20.0341 7.46975C19.9581 7.51818 19.8984 7.58826 19.8626 7.67096C19.8268 7.75366 19.8166 7.84519 19.8333 7.93374C19.85 8.02229 19.8929 8.1038 19.9564 8.16777L23.5722 11.7799C23.7066 11.9157 23.7819 12.0991 23.7819 12.2901C23.7819 12.4812 23.7066 12.6645 23.5722 12.8004L23.5735 12.8029Z" fill="#722282" stroke="#722282"/>
</g>
<defs>
<clipPath id="clip0_733_1600">
<rect width="25" height="25" fill="white"/>
</clipPath>
</defs>
</svg>
