<svg width="51" height="51" viewBox="0 0 51 51" fill="none" xmlns="http://www.w3.org/2000/svg">
<g clip-path="url(#clip0_711_2560)">
<path d="M50.496 23.9822C50.4961 22.5455 50.0711 21.1408 49.2744 19.9452C48.4777 18.7496 47.345 17.8165 46.019 17.2634C45.1834 12.4298 42.6647 8.04753 38.9086 4.89239C35.1526 1.73725 30.4014 0.0126607 25.496 0.0238579V0.0238579C20.5907 0.0126607 15.8395 1.73725 12.0835 4.89239C8.32743 8.04753 5.80872 12.4298 4.97313 17.2634C3.46284 17.9011 2.2115 19.0291 1.42108 20.4653C0.630669 21.9016 0.347309 23.5623 0.616742 25.1793C0.886176 26.7964 1.69268 28.2755 2.90607 29.3779C4.11947 30.4803 5.66894 31.1416 7.30438 31.2551C8.10876 32.9812 9.13934 34.5926 10.369 36.0468C9.29122 36.546 8.37805 37.342 7.73642 38.3416C7.09478 39.3411 6.75124 40.5028 6.74605 41.6905V50.0239H10.9127V41.6905C10.9127 41.138 11.1322 40.6081 11.5229 40.2174C11.9136 39.8267 12.4435 39.6072 12.996 39.6072H14.096C17.3348 42.2114 21.3414 43.6758 25.496 43.7739V43.7739C29.6527 43.6764 33.6615 42.212 36.9023 39.6072H37.996C38.5486 39.6072 39.0785 39.8267 39.4692 40.2174C39.8599 40.6081 40.0794 41.138 40.0794 41.6905V50.0239H44.246V41.6905C44.2418 40.5023 43.899 39.3399 43.2577 38.3396C42.6164 37.3392 41.7032 36.5425 40.6252 36.0426C41.8536 34.5879 42.8834 32.9766 43.6877 31.2509C45.5318 31.126 47.2598 30.3063 48.5234 28.9574C49.7869 27.6084 50.4918 25.8305 50.496 23.9822ZM42.6794 27.0509L40.9398 26.7426L40.3523 28.4093C38.444 33.8197 32.0169 39.6072 25.496 39.6072C18.9752 39.6072 12.5502 33.8155 10.6398 28.4072L10.0565 26.7551L8.3273 27.0468C8.14943 27.0819 7.96894 27.1021 7.78771 27.1072C7.01611 27.0955 6.2761 26.7988 5.71022 26.2741C5.14434 25.7494 4.79261 25.0339 4.72277 24.2654C4.65292 23.4969 4.86991 22.7297 5.33194 22.1116C5.79396 21.4935 6.46835 21.0682 7.22521 20.9176L8.76271 20.6489L8.92522 19.0989C9.20439 16.4285 10.1275 13.8659 11.6153 11.6309C13.1031 9.39599 15.1111 7.55553 17.4669 6.26761C17.2766 6.94827 17.1743 7.65052 17.1627 8.35719C17.1627 10.5673 18.0407 12.6869 19.6035 14.2497C21.1663 15.8126 23.2859 16.6905 25.496 16.6905C27.7062 16.6905 29.8258 15.8126 31.3886 14.2497C32.9514 12.6869 33.8294 10.5673 33.8294 8.35719H29.6627C29.6627 9.18128 29.4183 9.98686 28.9605 10.6721C28.5027 11.3573 27.8519 11.8913 27.0906 12.2067C26.3292 12.5221 25.4914 12.6046 24.6832 12.4438C23.8749 12.283 23.1325 11.8862 22.5498 11.3035C21.9671 10.7208 21.5702 9.97832 21.4094 9.17007C21.2487 8.36181 21.3312 7.52404 21.6465 6.76268C21.9619 6.00132 22.496 5.35057 23.1812 4.89273C23.8664 4.4349 24.672 4.19052 25.496 4.19052C29.6124 4.18068 33.5859 5.69866 36.6472 8.4505C39.7084 11.2023 41.6397 14.9923 42.0669 19.0864L42.2294 20.6364L43.7669 20.9134C44.5281 21.0597 45.2079 21.4837 45.674 22.1031C46.1402 22.7224 46.3595 23.4929 46.2894 24.265C46.2193 25.037 45.8648 25.7554 45.2947 26.2806C44.7245 26.8059 43.9795 27.1005 43.2044 27.1072C43.0282 27.103 42.8527 27.0849 42.6794 27.053V27.0509Z" fill="#722282"/>
<path d="M20.293 27.1101C22.0189 27.1101 23.418 25.711 23.418 23.9851C23.418 22.2592 22.0189 20.8601 20.293 20.8601C18.5671 20.8601 17.168 22.2592 17.168 23.9851C17.168 25.711 18.5671 27.1101 20.293 27.1101Z" fill="#722282"/>
<path d="M30.707 27.1101C32.4329 27.1101 33.832 25.711 33.832 23.9851C33.832 22.2592 32.4329 20.8601 30.707 20.8601C28.9811 20.8601 27.582 22.2592 27.582 23.9851C27.582 25.711 28.9811 27.1101 30.707 27.1101Z" fill="#722282"/>
</g>
<defs>
<clipPath id="clip0_711_2560">
<rect width="50" height="50" fill="white" transform="translate(0.5 0.0241699)"/>
</clipPath>
</defs>
</svg>
