<svg width="51" height="51" viewBox="0 0 51 51" fill="none" xmlns="http://www.w3.org/2000/svg">
<g clip-path="url(#clip0_711_2582)">
<path d="M15.0846 25.0242H35.918V29.1908H15.0846V25.0242ZM15.0846 37.5242H29.668V33.3575H15.0846V37.5242ZM46.3346 15.8283V50.0242H4.66797V6.27417C4.66797 4.61657 5.32645 3.02685 6.49855 1.85475C7.67065 0.68265 9.26037 0.0241699 10.918 0.0241699L30.5305 0.0241699L46.3346 15.8283ZM31.7513 14.6075H39.2221L31.7513 7.13667V14.6075ZM42.168 45.8575V18.7742H27.5846V4.19084H10.918C10.3654 4.19084 9.83553 4.41033 9.44483 4.80103C9.05413 5.19173 8.83464 5.72164 8.83464 6.27417V45.8575H42.168Z" fill="#722282"/>
</g>
<defs>
<clipPath id="clip0_711_2582">
<rect width="50" height="50" fill="white" transform="translate(0.5 0.0241699)"/>
</clipPath>
</defs>
</svg>
