<svg width="19" height="20" viewBox="0 0 19 20" fill="none" xmlns="http://www.w3.org/2000/svg">
<g clip-path="url(#clip0_821_386)">
<path d="M16.625 0.959717H2.375C1.74511 0.959717 1.14102 1.20994 0.695621 1.65534C0.250222 2.10074 0 2.70483 0 3.33472L0 18.3764H19V3.33472C19 2.70483 18.7498 2.10074 18.3044 1.65534C17.859 1.20994 17.2549 0.959717 16.625 0.959717ZM2.375 2.54305H16.625C16.835 2.54305 17.0363 2.62646 17.1848 2.77492C17.3333 2.92339 17.4167 3.12475 17.4167 3.33472V3.86276L11.1799 10.1003C10.7338 10.5447 10.1297 10.7942 9.5 10.7942C8.8703 10.7942 8.26624 10.5447 7.82008 10.1003L1.58333 3.86276V3.33472C1.58333 3.12475 1.66674 2.92339 1.81521 2.77492C1.96367 2.62646 2.16504 2.54305 2.375 2.54305ZM1.58333 16.7931V6.10555L6.70067 11.2197C7.44375 11.9609 8.45045 12.3772 9.5 12.3772C10.5495 12.3772 11.5563 11.9609 12.2993 11.2197L17.4167 6.10555V16.7931H1.58333Z" fill="#722282"/>
</g>
<defs>
<clipPath id="clip0_821_386">
<rect width="19" height="19" fill="white" transform="translate(0 0.167847)"/>
</clipPath>
</defs>
</svg>
