<svg width="24" height="24" viewBox="0 0 24 24" fill="none" xmlns="http://www.w3.org/2000/svg">
<g clip-path="url(#clip0_733_1220)">
<path d="M22.3747 3.78489C20.9811 2.99314 19.4571 2.45703 17.8747 2.20189C17.7224 1.63505 17.4062 1.12576 16.9657 0.737894C16.634 0.451413 16.2444 0.239933 15.8235 0.117913C15.4025 -0.0041071 14.9602 -0.0337899 14.5267 0.0308942C12.935 0.26836 11.3858 0.733803 9.92671 1.41289C9.70742 1.28288 9.4721 1.18203 9.22671 1.11289C8.81849 1.00165 8.39148 0.977281 7.97325 1.04136C7.55503 1.10544 7.1549 1.25653 6.79871 1.48489C4.68795 2.88035 2.87914 4.68576 1.47971 6.79389C1.25112 7.14998 1.09988 7.55012 1.0358 7.96838C0.971717 8.38664 0.996216 8.8137 1.10771 9.22189C1.17695 9.46724 1.27779 9.70255 1.40771 9.92189C0.730229 11.383 0.266155 12.9338 0.0297094 14.5269C-0.0341886 14.9606 -0.00403357 15.4029 0.118128 15.824C0.240289 16.245 0.451597 16.6348 0.737709 16.9669C1.12498 17.4087 1.63438 17.7261 2.20171 17.8789C2.45672 19.4613 2.99284 20.9853 3.78471 22.3789C4.11459 22.9715 4.62596 23.4426 5.24359 23.7229C5.86121 24.0032 6.55248 24.0778 7.21571 23.9359C7.90176 23.8 8.52591 23.447 8.99591 22.9291C9.46591 22.4112 9.75685 21.7559 9.82571 21.0599C9.90612 20.0054 10.1602 18.9715 10.5777 17.9999H11.7207C11.9909 17.1437 12.3401 16.3145 12.7637 15.5229L15.5227 12.7639C16.3143 12.3402 17.1435 11.9911 17.9997 11.7209V10.5779C18.9701 10.1608 20.0026 9.90674 21.0557 9.82589C21.7517 9.75703 22.4071 9.4661 22.925 8.99609C23.4429 8.52609 23.7958 7.90195 23.9317 7.21589C24.0748 6.55263 24.0007 5.86094 23.7203 5.24306C23.4399 4.62519 22.9681 4.11394 22.3747 3.78489ZM2.99971 11.2669L10.8607 14.8219C10.651 15.2033 10.4637 15.5967 10.2997 15.9999H2.99971C2.85788 16.0009 2.71754 15.9709 2.58852 15.912C2.45949 15.8531 2.34488 15.7667 2.25271 15.6589C2.15433 15.5439 2.08189 15.4091 2.0403 15.2637C1.99871 15.1182 1.98896 14.9655 2.01171 14.8159C2.19106 13.5962 2.523 12.4038 2.99971 11.2669ZM7.83671 20.8329C7.81264 21.1087 7.69938 21.3692 7.51408 21.5748C7.32878 21.7805 7.08151 21.9203 6.80971 21.9729C6.5596 22.0298 6.29771 22.0029 6.06441 21.8963C5.83112 21.7896 5.63936 21.6093 5.51871 21.3829C4.91801 20.3295 4.48769 19.1877 4.24371 17.9999H8.45971C8.17671 18.8739 7.83871 20.8329 7.83871 20.8329H7.83671ZM12.2157 13.2399L3.55471 9.32289C3.42832 9.25936 3.31673 9.1699 3.22722 9.06036C3.13771 8.95081 3.07229 8.82364 3.03521 8.68712C2.99813 8.5506 2.99023 8.4078 3.01203 8.26803C3.03382 8.12825 3.08483 7.99464 3.16171 7.87589C4.40146 6.00497 6.00452 4.40225 7.87571 3.16289C7.99453 3.08416 8.12901 3.03212 8.26989 3.01037C8.41076 2.98862 8.55467 2.99767 8.69171 3.03689C8.8219 3.07055 8.94368 3.13086 9.04937 3.21399C9.15506 3.29713 9.24234 3.40129 9.30571 3.51989L13.2397 12.2199L12.2157 13.2399ZM15.9997 10.2999C15.5965 10.4638 15.2031 10.6512 14.8217 10.8609L11.2667 2.99989C12.4032 2.52091 13.5956 2.18727 14.8157 2.00689C14.965 1.98397 15.1174 1.99365 15.2626 2.03525C15.4078 2.07685 15.5422 2.14939 15.6567 2.24789C15.7654 2.34056 15.8524 2.45591 15.9116 2.58584C15.9709 2.71576 16.001 2.8571 15.9997 2.99989V10.2999ZM21.9727 6.80989C21.9201 7.0817 21.7804 7.32896 21.5747 7.51426C21.369 7.69957 21.1085 7.81282 20.8327 7.83689C20.8327 7.83689 18.8737 8.17689 17.9997 8.45989V4.24389C19.1877 4.4885 20.3294 4.91949 21.3827 5.52089C21.6087 5.64193 21.7888 5.83373 21.8954 6.06692C22.0019 6.3001 22.0291 6.56179 21.9727 6.81189V6.80989Z" fill="#722282"/>
</g>
<defs>
<clipPath id="clip0_733_1220">
<rect width="24" height="24" fill="white"/>
</clipPath>
</defs>
</svg>
