<svg width="24" height="24" viewBox="0 0 24 24" fill="none" xmlns="http://www.w3.org/2000/svg">
<g clip-path="url(#clip0_733_494)">
<path d="M17.5 0.917236C16.3739 0.934751 15.2724 1.24909 14.3067 1.82851C13.341 2.40793 12.5453 3.23191 12 4.21724C11.4546 3.23191 10.6589 2.40793 9.6932 1.82851C8.7275 1.24909 7.62601 0.934751 6.49996 0.917236C4.7049 0.995227 3.01366 1.78049 1.79574 3.10147C0.577818 4.42245 -0.0677922 6.17176 -4.17093e-05 7.96724C-4.17093e-05 14.7422 10.956 22.5672 11.422 22.8992L12 23.3082L12.578 22.8992C13.044 22.5692 24 14.7422 24 7.96724C24.0677 6.17176 23.4221 4.42245 22.2042 3.10147C20.9863 1.78049 19.295 0.995227 17.5 0.917236ZM12 20.8462C8.74696 18.4162 1.99996 12.4462 1.99996 7.96724C1.9316 6.70195 2.36632 5.46097 3.20932 4.51494C4.05232 3.56891 5.23519 2.99459 6.49996 2.91724C7.76472 2.99459 8.9476 3.56891 9.7906 4.51494C10.6336 5.46097 11.0683 6.70195 11 7.96724H13C12.9316 6.70195 13.3663 5.46097 14.2093 4.51494C15.0523 3.56891 16.2352 2.99459 17.5 2.91724C18.7647 2.99459 19.9476 3.56891 20.7906 4.51494C21.6336 5.46097 22.0683 6.70195 22 7.96724C22 12.4482 15.253 18.4162 12 20.8462Z" fill="#722282"/>
</g>
<defs>
<clipPath id="clip0_733_494">
<rect width="24" height="24" fill="white"/>
</clipPath>
</defs>
</svg>
