<svg width="25" height="25" viewBox="0 0 25 25" fill="none" xmlns="http://www.w3.org/2000/svg">
<g clip-path="url(#clip0_733_1611)">
<g clip-path="url(#clip1_733_1611)">
<path d="M22.3818 18.5879C22.2789 18.5108 22.1617 18.4548 22.037 18.4231C21.9123 18.3914 21.7825 18.3847 21.6552 18.4034C21.5279 18.422 21.4056 18.4656 21.2952 18.5317C21.1848 18.5977 21.0886 18.685 21.012 18.7884C20.8352 19.0262 20.6459 19.2604 20.4491 19.482C20.2775 19.6761 20.1901 19.9303 20.2059 20.1889C20.2218 20.4474 20.3398 20.689 20.5338 20.8606C20.7278 21.0322 20.9821 21.1197 21.2406 21.1038C21.4991 21.0879 21.7408 20.97 21.9124 20.7759C22.1453 20.5119 22.3694 20.2355 22.5786 19.954C22.7336 19.7467 22.7999 19.4864 22.763 19.2302C22.7261 18.9741 22.589 18.743 22.3818 18.5879Z" fill="#722282"/>
<path d="M24.016 14.0074C23.8906 13.9802 23.7611 13.9779 23.6349 14.0006C23.5086 14.0234 23.3881 14.0709 23.2802 14.1403C23.1723 14.2097 23.0791 14.2996 23.006 14.405C22.9329 14.5105 22.8813 14.6293 22.8541 14.7546C22.7906 15.0448 22.7146 15.335 22.6275 15.6177C22.5896 15.7403 22.5763 15.8692 22.5882 15.9971C22.6002 16.1249 22.6372 16.249 22.6972 16.3625C22.7571 16.476 22.8389 16.5766 22.9377 16.6586C23.0365 16.7405 23.1505 16.8021 23.2732 16.84C23.3958 16.8778 23.5247 16.8911 23.6526 16.8792C23.7804 16.8672 23.9045 16.8302 24.018 16.7703C24.1315 16.7103 24.2321 16.6286 24.314 16.5297C24.3959 16.4309 24.4576 16.3169 24.4955 16.1943C24.5988 15.858 24.6897 15.5143 24.7644 15.1694C24.7917 15.0439 24.794 14.9143 24.7711 14.788C24.7483 14.6617 24.7007 14.5411 24.6312 14.4332C24.5617 14.3252 24.4716 14.2321 24.366 14.1591C24.2604 14.086 24.1415 14.0345 24.016 14.0074Z" fill="#722282"/>
<path d="M17.6821 21.7149C17.423 21.8593 17.1541 21.9951 16.8838 22.1171C16.767 22.1699 16.6617 22.2453 16.5739 22.3388C16.4862 22.4323 16.4177 22.5422 16.3725 22.6622C16.3272 22.7822 16.306 22.9099 16.3101 23.038C16.3142 23.1662 16.3434 23.2923 16.3963 23.4092C16.4491 23.526 16.5244 23.6313 16.6179 23.719C16.7115 23.8068 16.8213 23.8752 16.9413 23.9205C17.0613 23.9658 17.189 23.987 17.3172 23.9829C17.4454 23.9788 17.5714 23.9495 17.6883 23.8967C18.0083 23.7523 18.3272 23.5916 18.6348 23.4197C18.7467 23.3572 18.8452 23.2732 18.9247 23.1726C19.0042 23.0719 19.0631 22.9566 19.098 22.8332C19.1329 22.7098 19.1432 22.5808 19.1282 22.4535C19.1133 22.3261 19.0734 22.2029 19.0109 22.091C18.9483 21.979 18.8643 21.8805 18.7637 21.801C18.663 21.7216 18.5478 21.6627 18.4244 21.6277C18.301 21.5928 18.1719 21.5825 18.0446 21.5975C17.9172 21.6124 17.794 21.6523 17.6821 21.7149Z" fill="#722282"/>
<path d="M11.5238 4.68752V12.096L7.94229 15.6763C7.85161 15.767 7.77966 15.8746 7.73059 15.9931C7.68151 16.1116 7.65625 16.2386 7.65625 16.3668C7.65625 16.4951 7.68151 16.6221 7.73059 16.7406C7.77966 16.859 7.85161 16.9667 7.94229 17.0574C8.03297 17.1481 8.14061 17.22 8.2591 17.2691C8.37758 17.3181 8.50457 17.3434 8.63281 17.3434C8.76106 17.3434 8.88805 17.3181 9.00653 17.2691C9.12501 17.22 9.23267 17.1481 9.32335 17.0574L13.1901 13.1906C13.3733 13.0077 13.4763 12.7596 13.4765 12.5007V4.68752C13.4765 4.42857 13.3737 4.18025 13.1906 3.99715C13.0075 3.81405 12.7591 3.71118 12.5002 3.71118C12.2412 3.71118 11.9929 3.81405 11.8098 3.99715C11.6267 4.18025 11.5238 4.42857 11.5238 4.68752Z" fill="#722282"/>
<path d="M24.0234 2.09965C23.7644 2.09965 23.5161 2.20252 23.333 2.38562C23.1499 2.56871 23.047 2.81705 23.047 3.07599V5.78832C21.8813 3.95632 20.2584 2.45958 18.3382 1.44554C16.4181 0.431498 14.2669 -0.0648754 12.0966 0.0053123C9.92624 0.0755 7.81162 0.709827 5.961 1.84581C4.11038 2.9818 2.5876 4.58027 1.54263 6.48376C0.49766 8.38726 -0.0334428 10.5301 0.00163115 12.7013C0.0367051 14.8725 0.636746 16.9971 1.74265 18.8658C2.84856 20.7346 4.42218 22.283 6.30853 23.3587C8.19487 24.4343 10.3289 25 12.5003 25H12.5489C12.9013 25 13.2563 24.9851 13.6049 24.9564C13.7328 24.9457 13.8572 24.9099 13.9712 24.8511C14.0852 24.7923 14.1864 24.7117 14.2692 24.6137C14.352 24.5158 14.4147 24.4025 14.4537 24.2803C14.4928 24.1581 14.5073 24.0295 14.4966 23.9016C14.4859 23.7738 14.4501 23.6494 14.3913 23.5354C14.3325 23.4214 14.2518 23.3202 14.1539 23.2374C14.0559 23.1546 13.9426 23.0919 13.8205 23.0529C13.6983 23.0138 13.5696 22.9993 13.4418 23.01C13.1467 23.0349 12.8465 23.0473 12.5489 23.0473H12.5003C10.6539 23.047 8.83988 22.5619 7.23971 21.6406C5.63954 20.7193 4.3093 19.394 3.382 17.7973C2.45469 16.2006 1.96284 14.3884 1.95561 12.5419C1.94838 10.6955 2.42604 8.87951 3.34081 7.27559C4.25558 5.67166 5.57541 4.336 7.16832 3.40217C8.76123 2.46834 10.5714 1.96907 12.4178 1.95429C14.2642 1.9395 16.0821 2.40972 17.6897 3.31792C19.2974 4.22612 20.6385 5.54047 21.5788 7.12954H18.8939C18.6349 7.12954 18.3866 7.2324 18.2035 7.4155C18.0204 7.5986 17.9175 7.84694 17.9175 8.10588C17.9175 8.36482 18.0204 8.61316 18.2035 8.79625C18.3866 8.97935 18.6349 9.08222 18.8939 9.08222H21.8752C22.4466 9.0817 23.0068 8.92355 23.4941 8.62518C23.5241 8.60806 23.5532 8.58935 23.5813 8.56914C24.0153 8.28477 24.3717 7.89679 24.6182 7.44021C24.8648 6.98363 24.9938 6.47284 24.9935 5.95395V3.07599C24.9935 2.81813 24.8915 2.57073 24.7097 2.38781C24.528 2.20489 24.2812 2.1013 24.0234 2.09965Z" fill="#722282"/>
</g>
</g>
<defs>
<clipPath id="clip0_733_1611">
<rect width="25" height="25" fill="white"/>
</clipPath>
<clipPath id="clip1_733_1611">
<rect width="25" height="25" fill="white"/>
</clipPath>
</defs>
</svg>
