<svg width="50" height="51" viewBox="0 0 50 51" fill="none" xmlns="http://www.w3.org/2000/svg">
<g clip-path="url(#clip0_711_2573)">
<path d="M47.9542 18.3248C47.3451 17.7699 46.6326 17.3405 45.8574 17.0611C45.0823 16.7817 44.2596 16.6578 43.4366 16.6965C42.6135 16.7352 41.8061 16.9357 41.0606 17.2866C40.3151 17.6375 39.646 18.1319 39.0917 18.7415L32.3896 26.1061C31.8071 25.1405 30.9851 24.3416 30.0033 23.7868C29.0215 23.232 27.9131 22.9401 26.7854 22.9394H6.25C4.5924 22.9394 3.00268 23.5979 1.83058 24.77C0.65848 25.9421 0 27.5318 0 29.1894L0 43.7727C0 45.4303 0.65848 47.02 1.83058 48.1921C3.00268 49.3642 4.5924 50.0227 6.25 50.0227H28.0167L48.4062 27.1373C49.501 25.9023 50.067 24.2868 49.9824 22.6386C49.8979 20.9904 49.1695 19.4413 47.9542 18.3248V18.3248ZM45.2958 24.3665L26.15 45.8561H6.25C5.69747 45.8561 5.16756 45.6366 4.77686 45.2459C4.38616 44.8552 4.16667 44.3253 4.16667 43.7727V29.1894C4.16667 28.6369 4.38616 28.107 4.77686 27.7163C5.16756 27.3256 5.69747 27.1061 6.25 27.1061H26.7854C27.3887 27.1034 27.9705 27.3301 28.413 27.7402C28.8555 28.1504 29.1257 28.7133 29.1688 29.315C29.212 29.9168 29.0249 30.5125 28.6454 30.9815C28.266 31.4506 27.7225 31.758 27.125 31.8415L16.3708 33.3769L16.9625 37.5019L27.7146 35.9644C28.8939 35.7914 30.004 35.3011 30.9262 34.5459C31.8484 33.7907 32.5479 32.799 32.95 31.6769L42.1729 21.5436C42.3583 21.3382 42.5827 21.1718 42.8331 21.0542C43.0835 20.9365 43.3548 20.8698 43.6312 20.8581C44.1886 20.8359 44.7326 21.0317 45.1479 21.404C45.5557 21.7795 45.7997 22.3002 45.8274 22.8539C45.8551 23.4076 45.6642 23.9501 45.2958 24.3644V24.3665ZM21.7146 19.0852L22.9167 19.9373L24.1187 19.0852C25.0625 18.4186 33.3333 12.4019 33.3333 6.6894C33.3845 4.97766 32.7557 3.31532 31.5844 2.06599C30.4132 0.816653 28.7948 0.0820045 27.0833 0.0227291C25.5563 0.00321485 24.0747 0.541783 22.9167 1.53731C21.7586 0.541783 20.277 0.00321485 18.75 0.0227291C17.0385 0.0820045 15.4202 0.816653 14.2489 2.06599C13.0777 3.31532 12.4488 4.97766 12.5 6.6894C12.5 12.4019 20.7708 18.4186 21.7146 19.0852ZM18.75 4.1894C19.0284 4.17098 19.3074 4.21225 19.5685 4.31043C19.8296 4.40862 20.0668 4.56145 20.264 4.75871C20.4613 4.95596 20.6141 5.19308 20.7123 5.45419C20.8105 5.7153 20.8517 5.99438 20.8333 6.27273H25C24.9816 5.99438 25.0229 5.7153 25.121 5.45419C25.2192 5.19308 25.3721 4.95596 25.5693 4.75871C25.7666 4.56145 26.0037 4.40862 26.2648 4.31043C26.5259 4.21225 26.805 4.17098 27.0833 4.1894C27.6889 4.25015 28.2463 4.5461 28.6359 5.01361C29.0255 5.48112 29.2161 6.08285 29.1667 6.6894C29.1667 8.9269 25.8333 12.4561 22.9167 14.7748C20.3333 12.6915 16.6667 9.09356 16.6667 6.6894C16.6172 6.08285 16.8078 5.48112 17.1974 5.01361C17.587 4.5461 18.1445 4.25015 18.75 4.1894V4.1894Z" fill="#722282"/>
</g>
<defs>
<clipPath id="clip0_711_2573">
<rect width="50" height="50" fill="white" transform="translate(0 0.0241699)"/>
</clipPath>
</defs>
</svg>
