<svg width="50" height="51" viewBox="0 0 50 51" fill="none" xmlns="http://www.w3.org/2000/svg">
<g clip-path="url(#clip0_711_2567)">
<path d="M36.4567 1.93494C34.1108 1.97143 31.816 2.6263 29.8041 3.83342C27.7923 5.04054 26.1345 6.75716 24.9984 8.80994C23.8622 6.75716 22.2045 5.04054 20.1926 3.83342C18.1807 2.6263 15.886 1.97143 13.54 1.93494C9.80033 2.09742 6.27692 3.73338 3.73958 6.48542C1.20224 9.23746 -0.14278 12.8819 -0.00163312 16.6224C-0.00163312 30.737 22.8234 47.0391 23.7942 47.7308L24.9984 48.5829L26.2025 47.7308C27.1734 47.0433 49.9984 30.737 49.9984 16.6224C50.1395 12.8819 48.7945 9.23746 46.2572 6.48542C43.7198 3.73338 40.1964 2.09742 36.4567 1.93494ZM24.9984 43.4537C18.2213 38.3912 4.16503 25.9537 4.16503 16.6224C4.02262 13.9864 4.9283 11.401 6.68454 9.43014C8.44078 7.45925 10.9051 6.26275 13.54 6.1016C16.175 6.26275 18.6393 7.45925 20.3955 9.43014C22.1518 11.401 23.0574 13.9864 22.915 16.6224H27.0817C26.9393 13.9864 27.845 11.401 29.6012 9.43014C31.3575 7.45925 33.8218 6.26275 36.4567 6.1016C39.0916 6.26275 41.556 7.45925 43.3122 9.43014C45.0684 11.401 45.9741 13.9864 45.8317 16.6224C45.8317 25.9579 31.7755 38.3912 24.9984 43.4537Z" fill="#722282"/>
</g>
<defs>
<clipPath id="clip0_711_2567">
<rect width="50" height="50" fill="white" transform="translate(0 0.0241699)"/>
</clipPath>
</defs>
</svg>
