<svg width="25" height="25" viewBox="0 0 25 25" fill="none" xmlns="http://www.w3.org/2000/svg">
<g clip-path="url(#clip0_733_1583)">
<path d="M23.2503 10.1956C23.8104 9.63555 24.2536 8.96976 24.5542 8.23693C24.8547 7.5041 25.0067 6.71884 25.0011 5.92679C24.9956 5.13474 24.8327 4.35169 24.5219 3.62313C24.2111 2.89457 23.7587 2.23505 23.1908 1.68287C22.3742 0.889007 21.3477 0.345009 20.2323 0.114928C19.1169 -0.115152 17.9589 -0.0217351 16.8948 0.38418C15.8307 0.790096 14.9047 1.49161 14.2259 2.40611C13.5471 3.32062 13.1437 4.41004 13.0633 5.5461C13.0509 5.72055 13.0323 5.89377 13.0075 6.06574C11.8353 5.2456 10.548 4.60365 9.18766 4.16079C7.03467 3.52209 5.90608 4.06406 5.34303 4.63207C4.37939 5.59571 4.33723 7.30595 5.21901 9.4577C4.13849 9.85741 3.15794 10.4876 2.34546 11.3044C1.49815 12.1518 0.851451 13.1783 0.452865 14.3085C0.0542793 15.4386 -0.0860662 16.6437 0.0421379 17.8352C0.170342 19.0267 0.563839 20.1744 1.19372 21.1938C1.82361 22.2133 2.67388 23.0788 3.68208 23.7266C4.69027 24.3744 5.83079 24.7881 7.01984 24.9373C8.20889 25.0866 9.41626 24.9675 10.5533 24.589C11.6903 24.2104 12.7281 23.582 13.5904 22.7498C14.4527 21.9176 15.1176 20.9028 15.5363 19.7799C16.4026 20.1645 17.3347 20.3792 18.2821 20.4124C18.6616 20.4322 19.0412 20.3754 19.3982 20.2454C19.7553 20.1155 20.0826 19.915 20.3606 19.6559C20.9299 19.0866 21.4768 17.9556 20.8282 15.7964C20.3843 14.4374 19.7419 13.1515 18.922 11.9803C19.0799 11.9596 19.2391 11.9443 19.3995 11.9344C20.8496 11.8429 22.2166 11.2255 23.2441 10.1981L23.2503 10.1956ZM12.6491 21.6142C11.9525 22.3111 11.1079 22.8421 10.1779 23.1677C9.24787 23.4933 8.25645 23.6051 7.2773 23.4948C6.29815 23.3845 5.35644 23.055 4.52218 22.5306C3.68792 22.0063 2.98255 21.3007 2.45851 20.4663C1.93447 19.6319 1.60522 18.69 1.49525 17.7109C1.38528 16.7317 1.49741 15.7403 1.82331 14.8104C2.1492 13.8805 2.68048 13.036 3.37766 12.3397C4.07483 11.6434 4.91998 11.1132 5.85027 10.7884C6.10823 11.2647 6.40092 11.7484 6.71841 12.2296C5.89311 12.4529 5.14115 12.8897 4.53814 13.4958C4.00454 14.0289 3.6006 14.6776 3.35752 15.3916C3.11444 16.1057 3.03871 16.8661 3.13619 17.6141C3.23368 18.362 3.50175 19.0776 3.91973 19.7055C4.33771 20.3334 4.8944 20.8569 5.54682 21.2355C6.19925 21.614 6.92995 21.8376 7.68251 21.8889C8.43506 21.9402 9.18934 21.8179 9.8871 21.5313C10.5849 21.2448 11.2074 20.8017 11.7068 20.2364C12.2061 19.671 12.5688 18.9984 12.7669 18.2706C13.2481 18.593 13.7305 18.8907 14.208 19.1387C13.8809 20.0705 13.3481 20.9166 12.6491 21.6142ZM7.67337 13.533C8.22679 14.2369 8.82148 14.9074 9.4543 15.5409C10.0867 16.1728 10.7559 16.7666 11.4585 17.3193C11.4042 17.8711 11.2179 18.4016 10.9155 18.8663C10.6131 19.3309 10.2033 19.716 9.72082 19.989C9.23831 20.262 8.69721 20.415 8.14318 20.435C7.58914 20.4549 7.03843 20.3414 6.53752 20.1038C6.0366 19.8662 5.60018 19.5117 5.26508 19.07C4.92998 18.6283 4.70603 18.1126 4.61214 17.5662C4.51824 17.0198 4.55715 16.4588 4.72559 15.9306C4.89402 15.4024 5.18704 14.9225 5.57991 14.5314C6.12632 13.9789 6.84453 13.629 7.61632 13.5392L7.67833 13.5293L7.67337 13.533ZM19.4255 16.2156C19.7616 17.3441 19.7257 18.221 19.3251 18.6203C18.8067 19.1387 17.5516 19.0469 15.9691 18.3723C13.9221 17.4299 12.0651 16.1205 10.4899 14.509C8.87614 12.9328 7.56507 11.074 6.62168 9.02487C5.95197 7.43989 5.85647 6.18728 6.37488 5.66764C6.77422 5.26829 7.64733 5.23109 8.77095 5.5647C10.1518 6.02586 11.4498 6.70543 12.6156 7.57755C12.2835 8.45873 11.7687 9.25966 11.105 9.92773L10.945 10.0877C10.8079 10.2251 10.7308 10.4114 10.7308 10.6055C10.7308 10.7997 10.8079 10.9859 10.945 11.1233L13.7975 13.9758C13.8656 14.0439 13.9464 14.0979 14.0353 14.1347C14.1243 14.1716 14.2196 14.1906 14.3159 14.1906C14.4122 14.1906 14.5075 14.1716 14.5965 14.1347C14.6854 14.0979 14.7662 14.0439 14.8343 13.9758L14.8703 13.9398C15.5836 13.2292 16.445 12.6846 17.3928 12.3449C18.2721 13.5165 18.9576 14.8217 19.423 16.2106L19.4255 16.2156ZM14.3407 12.4453L12.4878 10.5937C13.6894 9.2127 14.4048 7.47568 14.5242 5.64904C14.6027 4.5246 15.1005 3.47062 15.9191 2.69571C16.7376 1.92079 17.8173 1.48143 18.9443 1.46459C20.1266 1.43632 21.2726 1.87374 22.1354 2.68257C22.9982 3.49139 23.5085 4.60685 23.5565 5.78848C23.6045 6.97012 23.1863 8.12329 22.392 8.99943C21.5976 9.87556 20.4909 10.4045 19.3102 10.4722C17.4839 10.5785 15.7404 11.2704 14.3382 12.4453H14.3407Z" fill="#722282"/>
</g>
<defs>
<clipPath id="clip0_733_1583">
<rect width="25" height="25" fill="white"/>
</clipPath>
</defs>
</svg>
