<svg xmlns="http://www.w3.org/2000/svg" width="127.111" height="44.167" viewBox="0 0 127.111 44.167">
  <g id="Logo_KOK_kinderopvang_2018_-_PMS" data-name="Logo KOK kinderopvang 2018 - PMS" transform="translate(-281.7 -560)">
    <g id="Group_3" data-name="Group 3" transform="translate(336.485 562.71)">
      <g id="Group_1" data-name="Group 1" transform="translate(0.015 0)">
        <path id="Path_1" data-name="Path 1" d="M664.487,606.528l-8.339-12.687h-.075v12.687H649.7V581.6h6.373v11.422h.075l8.443-11.422h6.775l-9.352,11.422,9.888,13.521h-7.416Z" transform="translate(-649.7 -581.094)" fill="#722282"/>
        <path id="Path_2" data-name="Path 2" d="M812.5,604.14c-8.16,0-11.7-5.912-11.7-12.97,0-7.029,3.544-12.97,11.7-12.97s11.675,5.942,11.675,12.97C824.179,598.229,820.665,604.14,812.5,604.14Zm0-22.173c-3.946,0-5.108,4.631-5.108,9.024,0,4.348,1.057,8.979,5.108,8.979,4.021,0,5.033-4.631,5.033-8.979C817.553,586.6,816.421,581.968,812.5,581.968Z" transform="translate(-778.299 -578.2)" fill="#e6007e"/>
        <path id="Path_3" data-name="Path 3" d="M1000.487,606.528l-8.339-12.687h-.074v12.687H985.7V581.6h6.374v11.422h.074l8.443-11.422h6.775l-9.352,11.422,9.888,13.521h-7.416Z" transform="translate(-935.666 -581.094)" fill="#80bc00"/>
      </g>
      <g id="Group_2" data-name="Group 2" transform="translate(0 28.799)">
        <path id="Path_4" data-name="Path 4" d="M653.4,781.428l-2.249-3.44h-.03v3.44H649.6V771.6h1.519v6.135h.03l2.144-3.053h1.549l-2.323,3.1,2.606,3.648Z" transform="translate(-649.6 -771.6)" fill="#722282"/>
        <path id="Path_5" data-name="Path 5" d="M692.934,775.9a.756.756,0,1,1,.834-.745A.789.789,0,0,1,692.934,775.9Zm-.774,7.907v-6.746h1.519v6.746Z" transform="translate(-685.771 -773.983)" fill="#722282"/>
        <path id="Path_6" data-name="Path 6" d="M717.8,798.28V793.5c0-.551-.253-1.132-1.221-1.132a2.478,2.478,0,0,0-1.057.194v5.718H714v-6.388a6.242,6.242,0,0,1,2.636-.491c2.01,0,2.68.983,2.68,2.07v4.81Z" transform="translate(-704.41 -788.452)" fill="#722282"/>
        <path id="Path_7" data-name="Path 7" d="M762.142,781.547c-2,0-3.142-1.281-3.142-3.41,0-2.2,1.206-3.514,2.948-3.514a3.567,3.567,0,0,1,1.013.119V771.6h1.534v9.456A4.7,4.7,0,0,1,762.142,781.547Zm.819-5.971a2.429,2.429,0,0,0-.67-.089c-1.325,0-1.772,1.132-1.772,2.561,0,1.519.491,2.531,1.668,2.531a1.579,1.579,0,0,0,.789-.149v-4.854Z" transform="translate(-742.709 -771.6)" fill="#722282"/>
        <path id="Path_8" data-name="Path 8" d="M806.474,795.55q.179,1.876,1.832,1.876a3.77,3.77,0,0,0,1.7-.372l.357.968a4.569,4.569,0,0,1-2.234.477c-1.921,0-3.127-1.236-3.127-3.514,0-2.2,1.117-3.484,2.874-3.484,1.787,0,2.77,1.191,2.71,3.455Zm1.37-3.112c-.893,0-1.5.73-1.459,2.338l2.785-.432C809.17,792.989,808.678,792.438,807.844,792.438Z" transform="translate(-781.859 -788.537)" fill="#722282"/>
        <path id="Path_9" data-name="Path 9" d="M854.848,792.493a1.872,1.872,0,0,0-1.43.045v5.688H851.9v-6.388a6.6,6.6,0,0,1,3.246-.477Z" transform="translate(-821.775 -788.413)" fill="#722282"/>
        <path id="Path_10" data-name="Path 10" d="M880.3,798.484c-1.891,0-2.8-1.5-2.8-3.485,0-2.01.908-3.5,2.8-3.5s2.8,1.489,2.8,3.5S882.191,798.484,880.3,798.484Zm0-6.031c-1.072,0-1.3,1.236-1.3,2.531s.238,2.472,1.3,2.472c1.087,0,1.3-1.191,1.3-2.472S881.387,792.453,880.3,792.453Z" transform="translate(-843.563 -788.537)" fill="#722282"/>
        <path id="Path_11" data-name="Path 11" d="M926.831,798.454a3.142,3.142,0,0,1-1.013-.134v2.74H924.3v-9.069a4.976,4.976,0,0,1,2.338-.491c1.966,0,3.157,1.266,3.157,3.41C929.795,797.114,928.589,798.454,926.831,798.454Zm-.223-6.046a1.931,1.931,0,0,0-.789.134v4.884a1.742,1.742,0,0,0,.67.119c1.206,0,1.787-.938,1.787-2.576C928.276,793.347,927.844,792.408,926.608,792.408Z" transform="translate(-883.394 -788.537)" fill="#722282"/>
        <path id="Path_12" data-name="Path 12" d="M969.448,799.046H968l-2.2-6.746h1.623l1.191,4.348a5.316,5.316,0,0,1,.164.923h.03a4.668,4.668,0,0,1,.179-.923l1.221-4.348h1.43Z" transform="translate(-918.714 -789.217)" fill="#722282"/>
        <path id="Path_13" data-name="Path 13" d="M1010.755,798.484c-1.846,0-2.755-.745-2.755-2.055,0-1.772,1.712-2.293,3.767-2.487v-.357c0-.879-.551-1.117-1.34-1.117a3.828,3.828,0,0,0-1.683.417l-.357-.879a5.4,5.4,0,0,1,2.308-.506c1.385,0,2.487.581,2.487,2.323v4.184A5.365,5.365,0,0,1,1010.755,798.484Zm1.013-3.812c-1.444.179-2.323.491-2.323,1.713,0,.879.521,1.251,1.415,1.251a2,2,0,0,0,.908-.194Z" transform="translate(-954.63 -788.537)" fill="#722282"/>
        <path id="Path_14" data-name="Path 14" d="M1057.5,798.28V793.5c0-.551-.253-1.132-1.221-1.132a2.477,2.477,0,0,0-1.057.194v5.718H1053.7v-6.388a6.242,6.242,0,0,1,2.636-.491c2.01,0,2.68.983,2.68,2.07v4.81Z" transform="translate(-993.525 -788.452)" fill="#722282"/>
        <path id="Path_15" data-name="Path 15" d="M1101.4,801.109a4.945,4.945,0,0,1-2.308-.477l.432-1a3.548,3.548,0,0,0,1.608.4,1.356,1.356,0,0,0,1.549-1.519v-.432a2.649,2.649,0,0,1-1.266.253c-1.608,0-2.71-1.251-2.71-3.291,0-2.189,1.087-3.648,3.261-3.648a4.2,4.2,0,0,1,2.189.491v6.478A2.491,2.491,0,0,1,1101.4,801.109Zm1.3-8.652a1.527,1.527,0,0,0-.789-.149c-1.191,0-1.683.983-1.683,2.666,0,1.638.477,2.472,1.608,2.472a1.757,1.757,0,0,0,.864-.208Z" transform="translate(-1031.824 -788.451)" fill="#722282"/>
      </g>
    </g>
    <g id="Group_4" data-name="Group 4" transform="translate(297.864 560.506)">
      <path id="Path_16" data-name="Path 16" d="M417.846,567.078A1.839,1.839,0,1,0,416,565.232,1.856,1.856,0,0,0,417.846,567.078Z" transform="translate(-412.165 -563.4)" fill="#722282"/>
      <path id="Path_17" data-name="Path 17" d="M401.348,574.837c-.462-.462-2.189,2.725-5.495,2.666-3.306.045-5.033-3.127-5.495-2.666-.238.134-.149,1.37.774,2.785,0,0,1.861,2.814,2.368,3.827.581,1.147,1.117,4.84,1.489,5.569.372.759.447.938.774.938s.4-.179.774-.938c.357-.73.879-4.423,1.474-5.569.536-1.013,2.561-3.827,2.561-3.827C401.5,576.207,401.586,574.971,401.348,574.837Z" transform="translate(-390.246 -573.095)" fill="#722282"/>
    </g>
    <g id="Group_5" data-name="Group 5" transform="translate(297.849 589.157)">
      <path id="Path_18" data-name="Path 18" d="M416.832,831a1.832,1.832,0,1,0,1.846,1.832A1.83,1.83,0,0,0,416.832,831Z" transform="translate(-411.299 -819.802)" fill="#722282"/>
      <path id="Path_19" data-name="Path 19" d="M390.258,768.934c.462.462,2.189-2.725,5.495-2.666,3.306-.045,5.033,3.127,5.495,2.666.238-.134.149-1.37-.774-2.785,0,0-1.861-2.829-2.368-3.827-.581-1.147-1.117-4.84-1.474-5.569-.372-.759-.447-.953-.774-.953s-.4.179-.774.953c-.357.73-.879,4.423-1.489,5.569-.536,1.027-2.561,3.827-2.561,3.827C390.109,767.564,390.02,768.8,390.258,768.934Z" transform="translate(-390.146 -755.8)" fill="#722282"/>
    </g>
    <g id="Group_6" data-name="Group 6" transform="translate(310.365 576.67)">
      <path id="Path_20" data-name="Path 20" d="M549.3,699.63a1.832,1.832,0,1,0,1.832-1.832A1.83,1.83,0,0,0,549.3,699.63Z" transform="translate(-538.117 -693.949)" fill="#80bc00"/>
      <path id="Path_21" data-name="Path 21" d="M487.319,683.048c.462-.462-2.725-2.189-2.666-5.495-.045-3.306,3.127-5.033,2.666-5.495-.134-.238-1.37-.149-2.785.774,0,0-2.814,1.861-3.827,2.368-1.147.581-4.84,1.117-5.569,1.489-.759.372-.938.447-.938.774s.179.4.938.774c.73.357,4.438.879,5.569,1.489,1.013.521,3.827,2.561,3.827,2.561C485.964,683.2,487.2,683.286,487.319,683.048Z" transform="translate(-474.2 -671.946)" fill="#80bc00"/>
    </g>
    <g id="Group_7" data-name="Group 7" transform="translate(281.7 576.655)">
      <path id="Path_22" data-name="Path 22" d="M285.378,698.532a1.839,1.839,0,1,0-1.846,1.832A1.834,1.834,0,0,0,285.378,698.532Z" transform="translate(-281.7 -692.999)" fill="#80bc00"/>
      <path id="Path_23" data-name="Path 23" d="M293.139,671.958c-.462.462,2.725,2.189,2.666,5.495.06,3.321-3.127,5.033-2.666,5.495.134.253,1.37.149,2.785-.774,0,0,2.814-1.861,3.827-2.368,1.147-.566,4.84-1.117,5.569-1.474.759-.372.938-.447.938-.774s-.179-.4-.938-.774c-.73-.357-4.423-.893-5.569-1.489-1.028-.536-3.827-2.561-3.827-2.561C294.509,671.809,293.273,671.72,293.139,671.958Z" transform="translate(-291.396 -671.846)" fill="#80bc00"/>
    </g>
    <g id="Group_8" data-name="Group 8" transform="translate(308.257 586.966)">
      <path id="Path_24" data-name="Path 24" d="M510.336,792.747a1.837,1.837,0,1,0,2.591.015A1.82,1.82,0,0,0,510.336,792.747Z" transform="translate(-502.391 -784.599)" fill="#ec7700"/>
      <path id="Path_25" data-name="Path 25" d="M465.516,754.445c.655-.015-.372-3.47,2-5.778,2.308-2.383,5.763-1.355,5.778-2,.089-.268-.864-1.087-2.517-1.415,0,0-3.321-.67-4.378-1.028-1.221-.417-4.214-2.636-4.989-2.889-.8-.283-.983-.343-1.221-.119s-.164.417.119,1.221c.268.774,2.5,3.753,2.889,4.989.342,1.1.893,4.512.893,4.512C464.444,753.581,465.248,754.52,465.516,754.445Z" transform="translate(-460.043 -741.086)" fill="#ec7700"/>
    </g>
    <g id="Group_9" data-name="Group 9" transform="translate(285.419 564.223)">
      <path id="Path_26" data-name="Path 26" d="M324.442,605.342a1.843,1.843,0,1,0-2.606,0A1.851,1.851,0,0,0,324.442,605.342Z" transform="translate(-319.122 -600.139)" fill="#ec7700"/>
      <path id="Path_27" data-name="Path 27" d="M314.449,588.367c-.655.015.372,3.47-2,5.778-2.308,2.368-5.763,1.34-5.778,2-.074.268.849,1.072,2.517,1.415,0,0,3.306.685,4.378,1.028,1.221.4,4.214,2.621,4.989,2.889.8.283.983.343,1.221.119s.164-.4-.119-1.221c-.268-.774-2.5-3.753-2.889-4.989-.342-1.1-.893-4.512-.893-4.512C315.521,589.215,314.717,588.277,314.449,588.367Z" transform="translate(-306.672 -588.361)" fill="#ec7700"/>
    </g>
    <g id="Group_10" data-name="Group 10" transform="translate(285.417 587.077)">
      <path id="Path_28" data-name="Path 28" d="M323.642,792.036a1.837,1.837,0,1,0,0,2.591A1.852,1.852,0,0,0,323.642,792.036Z" transform="translate(-318.439 -784.104)" fill="#e6007e"/>
      <path id="Path_29" data-name="Path 29" d="M306.667,747.3c.015.655,3.47-.372,5.778,2,2.368,2.308,1.34,5.763,2,5.778.268.074,1.072-.864,1.415-2.517,0,0,.685-3.306,1.027-4.378.4-1.221,2.621-4.214,2.889-4.989.283-.8.342-.983.119-1.206s-.417-.164-1.206.1-3.753,2.5-4.988,2.889c-1.1.342-4.512.893-4.512.893C307.515,746.223,306.577,747.027,306.667,747.3Z" transform="translate(-306.661 -741.836)" fill="#e6007e"/>
    </g>
    <g id="Group_11" data-name="Group 11" transform="translate(308.159 564.225)">
      <path id="Path_30" data-name="Path 30" d="M511.036,606.042a1.843,1.843,0,1,0,0-2.606A1.852,1.852,0,0,0,511.036,606.042Z" transform="translate(-502.888 -600.737)" fill="#e6007e"/>
      <path id="Path_31" data-name="Path 31" d="M472.745,596.149c-.015-.655-3.47.372-5.778-2-2.368-2.308-1.34-5.763-2-5.778-.268-.074-1.072.849-1.415,2.517,0,0-.67,3.306-1.028,4.378-.4,1.221-2.621,4.214-2.889,4.988-.283.8-.342.983-.119,1.206s.4.164,1.221-.119c.774-.268,3.753-2.5,4.988-2.889,1.1-.343,4.527-.893,4.527-.893C471.881,597.221,472.82,596.417,472.745,596.149Z" transform="translate(-459.386 -588.372)" fill="#e6007e"/>
    </g>
    <line id="Line_1" data-name="Line 1" y1="44.167" transform="translate(330.811 560)" fill="none" stroke="#722282" stroke-miterlimit="10" stroke-width="1.478"/>
  </g>
</svg>
