<svg width="20" height="21" viewBox="0 0 20 21" fill="none" xmlns="http://www.w3.org/2000/svg">
<g clip-path="url(#clip0_733_885)">
<path d="M10 0.012207C8.02219 0.012207 6.08879 0.598697 4.4443 1.69751C2.79981 2.79633 1.51809 4.35811 0.761209 6.18537C0.00433286 8.01263 -0.193701 10.0233 0.192152 11.9631C0.578004 13.9029 1.53041 15.6848 2.92894 17.0833C4.32746 18.4818 6.10929 19.4342 8.0491 19.8201C9.98891 20.2059 11.9996 20.0079 13.8268 19.251C15.6541 18.4941 17.2159 17.2124 18.3147 15.5679C19.4135 13.9234 20 11.99 20 10.0122C19.9971 7.36092 18.9426 4.81905 17.0679 2.94431C15.1932 1.06956 12.6513 0.0150746 10 0.012207V0.012207ZM17.2058 5.84554H14.5217C13.9208 4.45303 13.1297 3.15061 12.1708 1.97554C14.2929 2.55298 16.1019 3.94343 17.2058 5.84554ZM13.75 10.0122C13.7432 10.8607 13.6095 11.7033 13.3533 12.5122H6.64667C6.39055 11.7033 6.25685 10.8607 6.25 10.0122C6.25685 9.16376 6.39055 8.3211 6.64667 7.51221H13.3533C13.6095 8.3211 13.7432 9.16376 13.75 10.0122ZM7.315 14.1789H12.685C11.9777 15.5753 11.0735 16.8629 10 18.0022C8.92615 16.8632 8.02187 15.5756 7.315 14.1789ZM7.315 5.84554C8.02231 4.4491 8.92654 3.16151 10 2.02221C11.0739 3.16118 11.9781 4.44884 12.685 5.84554H7.315ZM7.83334 1.97554C6.87305 3.15036 6.08049 4.45279 5.47834 5.84554H2.79417C3.89905 3.94257 5.70972 2.552 7.83334 1.97554ZM2.05084 7.51221H4.91667C4.70064 8.32816 4.58864 9.16816 4.58334 10.0122C4.58864 10.8563 4.70064 11.6963 4.91667 12.5122H2.05084C1.53862 10.8849 1.53862 9.13952 2.05084 7.51221ZM2.79417 14.1789H5.47834C6.08049 15.5716 6.87305 16.8741 7.83334 18.0489C5.70972 17.4724 3.89905 16.0818 2.79417 14.1789ZM12.1708 18.0489C13.1297 16.8738 13.9208 15.5714 14.5217 14.1789H17.2058C16.1019 16.081 14.2929 17.4714 12.1708 18.0489ZM17.9492 12.5122H15.0833C15.2994 11.6963 15.4114 10.8563 15.4167 10.0122C15.4114 9.16816 15.2994 8.32816 15.0833 7.51221H17.9475C18.4597 9.13952 18.4597 10.8849 17.9475 12.5122H17.9492Z" fill="#722282"/>
</g>
<defs>
<clipPath id="clip0_733_885">
<rect width="20" height="20" fill="white" transform="translate(0 0.012207)"/>
</clipPath>
</defs>
</svg>
