<svg width="20" height="20" viewBox="0 0 20 20" fill="none" xmlns="http://www.w3.org/2000/svg">
<g clip-path="url(#clip0_711_2513)">
<path d="M9.96719 19.5302L9.41534 19.0572C8.65456 18.4202 2.01172 12.6832 2.01172 8.48672C2.01172 4.09304 5.57351 0.53125 9.96719 0.53125C14.3609 0.53125 17.9227 4.09304 17.9227 8.48672C17.9227 12.6832 11.2798 18.4202 10.5222 19.0604L9.96719 19.5302ZM9.96719 2.25146C6.52518 2.25535 3.73586 5.04468 3.73196 8.48668C3.73196 11.123 7.81889 15.3345 9.96719 17.262C12.1155 15.3337 16.2024 11.1198 16.2024 8.48668C16.1985 5.04468 13.4092 2.25539 9.96719 2.25146Z" fill="#3F0A48"/>
<path d="M9.96793 11.64C8.22632 11.64 6.81445 10.2281 6.81445 8.48649C6.81445 6.74487 8.22632 5.33301 9.96793 5.33301C11.7096 5.33301 13.1214 6.74487 13.1214 8.48649C13.1214 10.2281 11.7096 11.64 9.96793 11.64ZM9.96793 6.90971C9.09713 6.90971 8.39119 7.61564 8.39119 8.48645C8.39119 9.35726 9.09713 10.0632 9.96793 10.0632C10.8387 10.0632 11.5447 9.35726 11.5447 8.48645C11.5447 7.61564 10.8388 6.90971 9.96793 6.90971Z" fill="#3F0A48"/>
</g>
<defs>
<clipPath id="clip0_711_2513">
<rect width="19" height="19" fill="white" transform="translate(0.5 0.52417)"/>
</clipPath>
</defs>
</svg>
