<svg width="25" height="25" viewBox="0 0 25 25" fill="none" xmlns="http://www.w3.org/2000/svg">
<path d="M1.25 1C1.33937 1.00002 1.41008 1.02271 1.45605 1.04785L1.49316 1.07324C1.49568 1.07534 1.49811 1.07734 1.5 1.0791V7.29688C1.50396 8.0823 1.76332 8.83253 2.22266 9.4707L2.43066 9.7373C3.01666 10.4249 3.82153 10.9208 4.7168 11.1846L5.91895 11.5391L5.16797 11.4102C4.01977 11.2133 3.00839 10.7165 2.26953 10.0254L2.125 9.88477C1.42674 9.17182 1.05038 8.32017 1.00488 7.46191L1 7.29004V1.07812L1.00586 1.07324C1.03488 1.04906 1.09076 1.01989 1.16699 1.00684L1.25 1ZM11.249 1C11.3384 1.00005 11.4091 1.0227 11.4551 1.04785L11.4922 1.07324C11.4947 1.07538 11.4971 1.07731 11.499 1.0791V7.29199C11.4973 8.14996 11.1637 9.00989 10.5088 9.74023L10.373 9.88477C9.6243 10.6491 8.55493 11.2002 7.33008 11.4102L6.57812 11.5391L7.78223 11.1846C8.56558 10.9537 9.27915 10.5446 9.83789 9.98535L10.0674 9.7373C10.6193 9.0897 10.9511 8.30033 10.9941 7.46484L10.999 7.29688V1.07812L11.0049 1.07324C11.0436 1.041 11.1298 1 11.249 1ZM5.99902 1.0791L6.00586 1.07324C6.03485 1.04911 6.09007 1.0199 6.16602 1.00684L6.24902 1C6.33826 1 6.40908 1.02277 6.45508 1.04785L6.49316 1.07324C6.49531 1.07503 6.49735 1.07658 6.49902 1.07812V23.9209C6.49723 23.9226 6.49552 23.9248 6.49316 23.9268C6.45448 23.959 6.36824 24 6.24902 24C6.13004 23.9999 6.04456 23.959 6.00586 23.9268C6.00309 23.9244 6.00103 23.9218 5.99902 23.9199V1.0791ZM17.248 2.05469C17.2449 1.94335 17.2703 1.82315 17.335 1.70215L17.4131 1.58203C17.5367 1.41964 17.7339 1.26655 18 1.16699C18.2894 1.07168 18.6075 1.03794 18.9219 1.06934L19.0596 1.08691C19.4154 1.14475 19.7248 1.28428 19.959 1.46875C22.6479 3.94087 24.0672 7.13374 23.9971 10.3887C23.9495 12.0731 23.4754 13.7375 22.5967 15.2744L22.416 15.5801C21.4205 17.202 19.9887 18.6324 18.2139 19.7539L17.748 20.0479V23.9199C17.7461 23.9218 17.7439 23.9245 17.7412 23.9268C17.7024 23.959 17.617 24 17.498 24C17.4087 24 17.338 23.9773 17.292 23.9521L17.2549 23.9268C17.2522 23.9245 17.25 23.9218 17.248 23.9199V2.05469Z" stroke="#722282" stroke-width="2"/>
</svg>
