<svg width="25" height="25" viewBox="0 0 25 25" fill="none" xmlns="http://www.w3.org/2000/svg">
<g clip-path="url(#clip0_733_1591)">
<path d="M16.47 5.22158C16.4988 5.36648 16.5708 5.49925 16.6766 5.60243C16.7823 5.70561 16.9168 5.77437 17.0624 5.79965C17.208 5.82493 17.3578 5.80554 17.4921 5.74406C17.6265 5.68257 17.7391 5.58186 17.8151 5.45517C17.8911 5.32848 17.927 5.18173 17.918 5.03426C17.909 4.88678 17.8556 4.74548 17.7648 4.62893C17.674 4.51239 17.5501 4.42606 17.4093 4.3813C17.2685 4.33655 17.1174 4.33547 16.976 4.3782C16.8021 4.43103 16.654 4.54658 16.5605 4.70242C16.467 4.85826 16.4347 5.04328 16.47 5.22158Z" fill="#722282"/>
<path d="M24.2682 5.46713L21.6463 5.10622C21.3997 4.07466 20.9079 3.11781 20.2126 2.31689C19.5173 1.51597 18.6391 0.894602 17.6524 0.505532C16.6657 0.116462 15.5997 -0.02883 14.5449 0.0819864C13.4901 0.192803 12.4776 0.556457 11.5933 1.14209C10.709 1.72771 9.97903 2.51803 9.46536 3.44597C8.95169 4.3739 8.66946 5.41207 8.64263 6.47235C8.6158 7.53263 8.84515 8.58374 9.31123 9.53647C9.77731 10.4892 10.4664 11.3154 11.3199 11.945C10.7759 12.426 10.1385 12.7896 9.44769 13.0132C8.75684 13.2368 8.02731 13.3156 7.30465 13.2446C6.58199 13.1736 5.88174 12.9544 5.24761 12.6006C4.61348 12.2468 4.0591 11.7661 3.61909 11.1885C3.55761 11.1054 3.47924 11.0362 3.38912 10.9855C3.29901 10.9348 3.1992 10.9038 3.09624 10.8944C2.99328 10.885 2.88951 10.8976 2.79173 10.9311C2.69395 10.9647 2.60438 11.0186 2.5289 11.0893C1.7648 11.7543 1.1459 12.5696 0.710808 13.4844C0.275713 14.3992 0.0337478 15.3938 0 16.4063C0 21.1453 5.16942 25 11.5233 25C17.8486 25 22.9982 21.1453 22.9982 16.4063C22.9735 15.343 22.7182 14.2978 22.2499 13.343C21.7815 12.3881 21.1114 11.5463 20.2858 10.8759C20.4898 10.633 20.6759 10.3756 20.8426 10.1057C21.3741 10.1311 21.9052 10.0493 22.4044 9.86523C22.9036 9.6812 23.3608 9.39866 23.7486 9.03443C24.1364 8.67019 24.4471 8.2317 24.6621 7.745C24.877 7.25831 24.992 6.73337 25 6.20137C25.0002 6.10527 24.9814 6.01009 24.9448 5.92124C24.9082 5.8324 24.8544 5.75164 24.7866 5.68358C24.7187 5.61551 24.6381 5.56147 24.5494 5.52455C24.4607 5.48763 24.3656 5.46854 24.2695 5.46837L24.2682 5.46713ZM18.6871 21.3648C16.5873 22.8237 14.0809 23.5832 11.5245 23.5353C3.97753 23.5353 -1.29856 17.5758 2.994 12.7115C3.65747 13.3887 4.45631 13.9184 5.33837 14.266C6.22043 14.6136 7.16588 14.7712 8.11299 14.7286C9.0601 14.686 9.98758 14.4441 10.8349 14.0187C11.6822 13.5934 12.4302 12.9941 13.0302 12.2601C13.0963 12.1763 13.1433 12.0791 13.168 11.9753C13.1926 11.8715 13.1943 11.7636 13.1729 11.6591C13.1516 11.5546 13.1076 11.456 13.0442 11.3702C12.9808 11.2844 12.8994 11.2135 12.8057 11.1624C12.0474 10.7615 11.4014 10.1773 10.9264 9.46296C10.4514 8.74865 10.1626 7.92692 10.0862 7.07252C10.0098 6.21812 10.1483 5.35819 10.489 4.57095C10.8297 3.78372 11.3619 3.09418 12.0371 2.56506C12.7123 2.03595 13.509 1.68406 14.3549 1.54141C15.2007 1.39876 16.0688 1.46989 16.8802 1.74831C17.6916 2.02673 18.4204 2.50361 19.0005 3.13556C19.5805 3.76751 19.9934 4.53448 20.2014 5.36667C19.7795 5.58348 19.4254 5.91227 19.178 6.317C18.9305 6.72174 18.7993 7.18678 18.7987 7.66116V8.13122C18.7986 8.40413 18.8551 8.67409 18.9646 8.92407C19.0741 9.17404 19.2343 9.3986 19.4349 9.58357C19.2238 9.88485 18.981 10.1626 18.7106 10.4121C18.6316 10.4851 18.5695 10.5747 18.529 10.6744C18.4885 10.7742 18.4704 10.8816 18.4761 10.9891C18.4818 11.0966 18.5111 11.2016 18.5619 11.2965C18.6127 11.3914 18.6838 11.4739 18.7702 11.5382C22.4909 14.304 22.4525 18.6077 18.6871 21.3686V21.3648ZM20.7781 8.64221C20.6417 8.64188 20.511 8.58755 20.4145 8.49109C20.3181 8.39464 20.2638 8.26391 20.2634 8.1275V7.65744C20.2632 7.36897 20.3747 7.09161 20.5744 6.88352C20.7742 6.67542 21.0468 6.55274 21.335 6.5412L23.4546 6.83266C23.2714 7.38804 22.9091 7.86695 22.4246 8.1944C21.94 8.52185 21.3618 8.67934 20.7781 8.64221Z" fill="#722282"/>
<path d="M16.4907 14.4715C15.9231 14.1509 15.2655 14.027 14.6201 14.1189C13.9748 14.2109 13.3779 14.5136 12.9225 14.98C11.5495 16.3121 8.93998 16.5849 7.50748 16.6296C7.39628 16.6331 7.28734 16.6619 7.18893 16.7138C7.09052 16.7657 7.00522 16.8394 6.93948 16.9291C6.87375 17.0189 6.8293 17.1224 6.80953 17.2319C6.78975 17.3414 6.79515 17.4539 6.82533 17.561C7.23848 18.606 7.97302 19.4927 8.92291 20.093C9.87281 20.6934 10.9889 20.9763 12.1101 20.901C13.463 20.9268 14.8014 20.6189 16.007 20.0043C16.5098 19.7791 16.9482 19.4314 17.282 18.9931C17.6159 18.5548 17.8346 18.0399 17.9183 17.4953C18.0268 16.9053 17.9475 16.2961 17.6914 15.7535C17.4352 15.211 17.0153 14.7626 16.4907 14.4715ZM16.4585 17.3737C16.3754 18.366 14.608 19.4375 12.1101 19.4375C11.4748 19.4653 10.8413 19.3523 10.2547 19.1069C9.66807 18.8614 9.14293 18.4894 8.71674 18.0175C10.6258 17.9297 12.4569 17.2344 13.9432 16.033C14.1727 15.7818 14.4819 15.6174 14.8185 15.5674C15.1551 15.5175 15.4986 15.5851 15.7912 15.7589C16.1484 15.9524 16.5478 16.3121 16.4585 17.3737Z" fill="#722282"/>
</g>
<defs>
<clipPath id="clip0_733_1591">
<rect width="25" height="25" fill="white"/>
</clipPath>
</defs>
</svg>
