<svg width="28" height="26" viewBox="0 0 28 26" fill="none" xmlns="http://www.w3.org/2000/svg">
<path d="M14.5182 23.6394C14.4181 24.1696 13.6638 24.1911 13.5371 23.6667C11.9276 17.0085 10.8627 12.5595 8.78626 6.83467C8.66753 6.50734 8.90901 6.15989 9.2572 6.15989L18.879 6.15989C19.2388 6.15989 19.4808 6.52904 19.3403 6.86032C16.7653 12.9327 15.7437 17.1464 14.5182 23.6394Z" fill="#E6007E"/>
<path d="M5.6418 4.22026C4.32514 3.82885 3.66682 3.63314 3.48278 4.0054C3.29875 4.37765 3.84763 4.8037 4.9454 5.6558C6.92139 7.18958 8.71879 8.51546 10.043 10.558C10.5684 11.3683 10.831 11.7734 11.1142 11.7612C11.3973 11.749 11.6021 11.3546 12.0116 10.5656L13.4689 7.75805C13.8045 7.1114 13.9724 6.78807 13.8469 6.55145C13.7215 6.31483 13.3416 6.27361 12.5819 6.19116C10.124 5.92442 8.51404 5.0741 5.6418 4.22026Z" fill="#E6007E"/>
<path d="M22.3211 4.48149C23.6377 4.09008 24.2961 3.89437 24.4801 4.26663C24.6641 4.63889 24.1153 5.06493 23.0175 5.91703C21.0415 7.45081 19.2441 8.77669 17.9199 10.8192C17.3945 11.6295 17.1319 12.0346 16.8487 12.0224C16.5656 12.0103 16.3608 11.6158 15.9513 10.8269L14.494 8.01928C14.1584 7.37263 13.9905 7.0493 14.116 6.81268C14.2414 6.57606 14.6212 6.53484 15.381 6.45239C17.8389 6.18565 19.4488 5.33533 22.3211 4.48149Z" fill="#E6007E"/>
<ellipse cx="14.0931" cy="2.95981" rx="2.56381" ry="2.61228" fill="#E6007E"/>
</svg>
