<svg width="20" height="21" viewBox="0 0 20 21" fill="none" xmlns="http://www.w3.org/2000/svg">
<g clip-path="url(#clip0_733_876)">
<path d="M17.5 20.0128H15.8333V15.8103C15.8327 15.1569 15.5728 14.5306 15.1109 14.0686C14.6489 13.6066 14.0225 13.3468 13.3692 13.3461H6.63083C5.9775 13.3468 5.35111 13.6066 4.88914 14.0686C4.42716 14.5306 4.16733 15.1569 4.16667 15.8103V20.0128H2.5V15.8103C2.50132 14.7151 2.93696 13.6652 3.71135 12.8908C4.48575 12.1164 5.53567 11.6808 6.63083 11.6794H13.3692C14.4643 11.6808 15.5143 12.1164 16.2886 12.8908C17.063 13.6652 17.4987 14.7151 17.5 15.8103V20.0128Z" fill="#722282"/>
<path d="M10 10.0122C9.0111 10.0122 8.0444 9.71896 7.22215 9.16956C6.39991 8.62015 5.75904 7.83926 5.3806 6.92563C5.00217 6.012 4.90315 5.00666 5.09608 4.03676C5.289 3.06685 5.76521 2.17594 6.46447 1.47668C7.16373 0.777413 8.05465 0.301209 9.02455 0.108283C9.99446 -0.0846432 10.9998 0.0143735 11.9134 0.392812C12.8271 0.77125 13.6079 1.41211 14.1574 2.23436C14.7068 3.0566 15 4.0233 15 5.01221C14.9987 6.33789 14.4715 7.60889 13.5341 8.54628C12.5967 9.48368 11.3257 10.0109 10 10.0122ZM10 1.67888C9.34073 1.67888 8.69627 1.87437 8.1481 2.24064C7.59994 2.60692 7.1727 3.12751 6.9204 3.7366C6.66811 4.34569 6.6021 5.01591 6.73072 5.66251C6.85934 6.30911 7.1768 6.90306 7.64298 7.36923C8.10915 7.83541 8.7031 8.15288 9.3497 8.28149C9.99631 8.41011 10.6665 8.3441 11.2756 8.09181C11.8847 7.83952 12.4053 7.41227 12.7716 6.86411C13.1378 6.31595 13.3333 5.67148 13.3333 5.01221C13.3333 4.12815 12.9821 3.28031 12.357 2.65519C11.7319 2.03007 10.8841 1.67888 10 1.67888Z" fill="#722282"/>
</g>
<defs>
<clipPath id="clip0_733_876">
<rect width="20" height="20" fill="white" transform="translate(0 0.012207)"/>
</clipPath>
</defs>
</svg>
