<svg width="50" height="50" viewBox="0 0 50 50" fill="none" xmlns="http://www.w3.org/2000/svg">
<g clip-path="url(#clip0_538_7627)">
<g clip-path="url(#clip1_538_7627)">
<path d="M44.7644 37.1756C44.5585 37.0213 44.324 36.9093 44.0746 36.846C43.8253 36.7827 43.5658 36.7693 43.3112 36.8066C43.0566 36.8438 42.8119 36.931 42.5911 37.0632C42.3703 37.1953 42.1779 37.3698 42.0248 37.5766C41.6711 38.0523 41.2924 38.5206 40.8989 38.9639C40.5558 39.352 40.3809 39.8605 40.4126 40.3775C40.4444 40.8946 40.6803 41.3779 41.0683 41.7211C41.4564 42.0642 41.9649 42.2391 42.482 42.2074C42.999 42.1756 43.4823 41.9398 43.8255 41.5517C44.2912 41.0237 44.7396 40.4708 45.158 39.9079C45.4679 39.4933 45.6006 38.9726 45.5268 38.4603C45.453 37.9479 45.1788 37.4858 44.7644 37.1756Z" fill="white"/>
<path d="M48.0322 28.0149C47.7815 27.9603 47.5225 27.9557 47.27 28.0013C47.0175 28.0469 46.7765 28.1418 46.5607 28.2805C46.3449 28.4193 46.1585 28.5992 46.0123 28.8101C45.8661 29.0209 45.7628 29.2585 45.7085 29.5093C45.5815 30.0896 45.4295 30.6699 45.2552 31.2353C45.1794 31.4806 45.1528 31.7385 45.1767 31.9941C45.2006 32.2497 45.2746 32.4981 45.3946 32.7251C45.5145 32.9521 45.678 33.1533 45.8756 33.3171C46.0733 33.4809 46.3012 33.6042 46.5466 33.6799C46.7919 33.7556 47.0497 33.7823 47.3053 33.7583C47.561 33.7344 47.8093 33.6604 48.0363 33.5405C48.2633 33.4206 48.4645 33.2571 48.6283 33.0594C48.7921 32.8618 48.9154 32.6338 48.9912 32.3885C49.1979 31.716 49.3797 31.0286 49.5291 30.3387C49.5837 30.0878 49.5883 29.8287 49.5425 29.576C49.4968 29.3234 49.4017 29.0822 49.2627 28.8663C49.1236 28.6505 48.9434 28.4643 48.7323 28.3182C48.5211 28.1721 48.2832 28.069 48.0322 28.0149Z" fill="white"/>
<path d="M35.3649 43.4297C34.8468 43.7186 34.3088 43.9901 33.7684 44.2341C33.5347 44.3398 33.3241 44.4905 33.1486 44.6775C32.9731 44.8645 32.8362 45.0843 32.7457 45.3243C32.6551 45.5642 32.6127 45.8197 32.6209 46.076C32.629 46.3323 32.6876 46.5845 32.7933 46.8182C32.8989 47.0519 33.0496 47.2625 33.2366 47.438C33.4236 47.6135 33.6434 47.7504 33.8834 47.8409C34.1233 47.9315 34.3788 47.9739 34.6351 47.9657C34.8914 47.9576 35.1436 47.899 35.3773 47.7933C36.0174 47.5044 36.6551 47.1831 37.2703 46.8393C37.4941 46.7142 37.6912 46.5463 37.8501 46.3451C38.0091 46.1438 38.1269 45.9132 38.1967 45.6664C38.2666 45.4196 38.2871 45.1615 38.2572 44.9068C38.2273 44.6521 38.1475 44.4057 38.0224 44.1818C37.8973 43.958 37.7293 43.7609 37.5281 43.602C37.3268 43.443 37.0962 43.3252 36.8495 43.2554C36.6027 43.1855 36.3446 43.165 36.0898 43.1949C35.8351 43.2248 35.5887 43.3046 35.3649 43.4297Z" fill="white"/>
<path d="M23.0484 9.37485V24.1918L15.8853 31.3524C15.7039 31.5338 15.5601 31.7491 15.4619 31.9861C15.3638 32.223 15.3132 32.477 15.3132 32.7335C15.3132 32.99 15.3638 33.244 15.4619 33.4809C15.5601 33.7179 15.7039 33.9332 15.8853 34.1146C16.0667 34.296 16.282 34.4398 16.5189 34.538C16.7559 34.6361 17.0099 34.6866 17.2664 34.6866C17.5228 34.6866 17.7768 34.6361 18.0138 34.538C18.2508 34.4398 18.4661 34.296 18.6474 34.1146L26.3809 26.3811C26.7472 26.0153 26.9533 25.5189 26.9538 25.0013V9.37485C26.9538 8.85697 26.7481 8.36031 26.3819 7.99411C26.0157 7.62791 25.519 7.42218 25.0011 7.42218C24.4832 7.42218 23.9866 7.62791 23.6204 7.99411C23.2542 8.36031 23.0484 8.85697 23.0484 9.37485Z" fill="white"/>
<path d="M48.0472 4.19915C47.5294 4.19915 47.0327 4.40488 46.6665 4.77108C46.3003 5.13728 46.0946 5.63395 46.0946 6.15183V11.5765C43.763 7.91248 40.5173 4.91901 36.677 2.89093C32.8367 0.862842 28.5343 -0.129903 24.1936 0.010472C19.853 0.150847 15.6237 1.4195 11.9225 3.69148C8.22126 5.96345 5.17568 9.16038 3.08574 12.9674C0.995808 16.7744 -0.0663973 21.0601 0.00375057 25.4025C0.0738984 29.7448 1.27398 33.994 3.48579 37.7315C5.6976 41.469 8.84485 44.5659 12.6175 46.7172C16.3902 48.8684 20.6582 49.9998 25.0012 49.9999H25.0983C25.8032 49.9999 26.513 49.97 27.2104 49.9127C27.466 49.8913 27.7149 49.8197 27.9428 49.7021C28.1708 49.5845 28.3734 49.4232 28.539 49.2273C28.7045 49.0314 28.8299 48.8048 28.908 48.5604C28.986 48.3161 29.0151 48.0588 28.9937 47.8031C28.9723 47.5475 28.9007 47.2986 28.7831 47.0707C28.6655 46.8427 28.5041 46.6402 28.3082 46.4746C28.1123 46.309 27.8858 46.1836 27.6414 46.1056C27.397 46.0275 27.1397 45.9984 26.8841 46.0198C26.2938 46.0696 25.6936 46.0945 25.0983 46.0945H25.0012C21.3083 46.0939 17.6802 45.1237 14.4799 43.2811C11.2796 41.4384 8.61908 38.7878 6.76448 35.5944C4.90988 32.401 3.92616 28.7766 3.91171 25.0837C3.89725 21.3908 4.85256 17.7589 6.68211 14.551C8.51165 11.3432 11.1513 8.67185 14.3371 6.80419C17.5229 4.93653 21.1433 3.93799 24.836 3.90842C28.5288 3.87885 32.1647 4.81928 35.38 6.63568C38.5953 8.45208 41.2774 11.0808 43.1581 14.2589H37.7882C37.2703 14.2589 36.7737 14.4647 36.4075 14.8309C36.0413 15.1971 35.8355 15.6937 35.8355 16.2116C35.8355 16.7295 36.0413 17.2262 36.4075 17.5924C36.7737 17.9586 37.2703 18.1643 37.7882 18.1643H43.7509C44.8937 18.1632 46.0141 17.8469 46.9887 17.2502C47.0488 17.216 47.107 17.1786 47.1631 17.1381C48.0311 16.5694 48.7439 15.7934 49.237 14.8803C49.7301 13.9671 49.988 12.9455 49.9875 11.9077V6.15183C49.9875 5.6361 49.7835 5.1413 49.42 4.77546C49.0564 4.40962 48.563 4.20244 48.0472 4.19915Z" fill="white"/>
</g>
</g>
<defs>
<clipPath id="clip0_538_7627">
<rect width="50" height="50" fill="white"/>
</clipPath>
<clipPath id="clip1_538_7627">
<rect width="50" height="50" fill="white"/>
</clipPath>
</defs>
</svg>
