<svg width="50" height="50" viewBox="0 0 50 50" fill="none" xmlns="http://www.w3.org/2000/svg">
<g clip-path="url(#clip0_538_7629)">
<path d="M11.499 23.5273L10.252 23.3135C7.86812 22.9048 5.75208 21.8715 4.19629 20.416L3.89355 20.1201C2.4192 18.6149 1.60785 16.7986 1.50977 14.9512L1.5 14.5811V2.08301L1.50684 2.02832C1.51684 1.9846 1.54015 1.92739 1.5918 1.86328L1.69238 1.7627C1.84567 1.63495 2.08489 1.5292 2.37305 1.50488L2.5 1.5C2.8014 1.50006 3.05927 1.58889 3.23633 1.70898L3.30664 1.7627C3.47357 1.90182 3.49893 2.02552 3.49902 2.08301V14.5908C3.50681 16.1549 4.05994 17.6512 5.04102 18.9023L5.24316 19.1494C6.34588 20.4433 7.86809 21.3857 9.5752 21.8887L11.499 22.4561V2.08301C11.4991 2.03991 11.5133 1.95948 11.5908 1.86328L11.6914 1.7627C11.8447 1.63492 12.0838 1.52917 12.3721 1.50488L12.499 1.5C12.8004 1.50009 13.0583 1.58887 13.2354 1.70898L13.3057 1.7627C13.4726 1.90181 13.498 2.02553 13.498 2.08301V22.4561L15.4219 21.8887C17.0225 21.4171 18.4608 20.5594 19.543 19.3877L19.7539 19.1494C20.7917 17.9316 21.4094 16.4567 21.4893 14.9023L21.498 14.5908V2.08301C21.4981 2.0399 21.5123 1.95952 21.5898 1.86328L21.6904 1.7627C21.8656 1.61672 22.1527 1.50008 22.4971 1.5C22.7983 1.5 23.0563 1.589 23.2334 1.70898L23.3047 1.7627C23.4715 1.90178 23.497 2.02554 23.4971 2.08301V14.583C23.4938 16.433 22.7749 18.2695 21.3896 19.8145L21.1045 20.1201C19.5261 21.7316 17.2877 22.8777 14.7451 23.3135L13.498 23.5273V47.917C13.498 47.9745 13.4726 48.0982 13.3057 48.2373C13.1305 48.3833 12.8434 48.4999 12.499 48.5C12.1545 48.5 11.8666 48.3833 11.6914 48.2373C11.5245 48.0982 11.4991 47.9745 11.499 47.917V23.5273ZM33.9961 4.12402C33.9856 3.75828 34.0868 3.37642 34.3193 3.01465L34.4277 2.86035C34.7367 2.45454 35.2102 2.09695 35.8184 1.86816C36.4718 1.64879 37.1879 1.56991 37.8945 1.64062L38.1982 1.67969C38.9924 1.80863 39.6967 2.12213 40.2383 2.55176C45.7234 7.58593 48.6398 14.1143 48.4951 20.791C48.3976 24.2454 47.425 27.6541 45.6289 30.7959L45.2578 31.4209C43.2236 34.7354 40.3034 37.6492 36.6943 39.9297L35.9961 40.3711V47.917C35.996 47.9744 35.9703 48.0983 35.8037 48.2373C35.6285 48.3833 35.3406 48.5 34.9961 48.5C34.6947 48.5 34.4369 48.4111 34.2598 48.291L34.1885 48.2373C34.0218 48.0983 33.9962 47.9744 33.9961 47.917V4.12402Z" stroke="white" stroke-width="3"/>
</g>
<defs>
<clipPath id="clip0_538_7629">
<rect width="50" height="50" fill="white"/>
</clipPath>
</defs>
</svg>
