<svg width="50" height="50" viewBox="0 0 50 50" fill="none" xmlns="http://www.w3.org/2000/svg">
<g clip-path="url(#clip0_538_7625)">
<g clip-path="url(#clip1_538_7625)">
<path d="M32.9389 10.443C32.9966 10.7328 33.1407 10.9984 33.3522 11.2047C33.5637 11.4111 33.8327 11.5486 34.1239 11.5992C34.415 11.6497 34.7146 11.611 34.9833 11.488C35.252 11.365 35.4772 11.1636 35.6292 10.9102C35.7813 10.6568 35.853 10.3633 35.8351 10.0684C35.8171 9.77345 35.7103 9.49084 35.5287 9.25775C35.3471 9.02465 35.0992 8.85199 34.8176 8.76248C34.536 8.67297 34.2338 8.67081 33.951 8.75627C33.6032 8.86193 33.307 9.09303 33.12 9.40472C32.933 9.7164 32.8685 10.0864 32.9389 10.443Z" fill="white"/>
<path d="M48.5365 10.9342L43.2927 10.2123C42.7995 8.14921 41.8158 6.23552 40.4252 4.63367C39.0346 3.03183 37.2781 1.7891 35.3047 1.01096C33.3314 0.232817 31.1994 -0.0577667 29.0898 0.163866C26.9801 0.385499 24.9551 1.11281 23.1865 2.28406C21.418 3.45532 19.9581 5.03596 18.9307 6.89183C17.9034 8.7477 17.3389 10.824 17.2853 12.9446C17.2316 15.0652 17.6903 17.1674 18.6225 19.0728C19.5546 20.9783 20.9327 22.6307 22.6398 23.89C21.5518 24.8519 20.2771 25.5792 18.8954 26.0264C17.5137 26.4736 16.0546 26.6311 14.6093 26.4891C13.164 26.3471 11.7635 25.9086 10.4952 25.2011C9.22696 24.4935 8.1182 23.5321 7.23818 22.3768C7.11521 22.2106 6.95847 22.0723 6.77825 21.9709C6.59803 21.8695 6.3984 21.8075 6.19248 21.7887C5.98657 21.77 5.77901 21.795 5.58345 21.8622C5.38789 21.9293 5.20875 22.0371 5.0578 22.1784C3.52959 23.5085 2.29181 25.1392 1.42162 26.9688C0.551427 28.7983 0.0674956 30.7876 0 32.8124C0 42.2905 10.3388 50 23.0466 50C35.6973 50 45.9964 42.2905 45.9964 32.8124C45.947 30.6859 45.4364 28.5955 44.4997 26.6858C43.563 24.7761 42.2228 23.0926 40.5715 21.7517C40.9795 21.2659 41.3518 20.7511 41.6853 20.2113C42.7482 20.262 43.8104 20.0984 44.8088 19.7304C45.8073 19.3623 46.7215 18.7972 47.4972 18.0687C48.2729 17.3403 48.8941 16.4633 49.3241 15.4899C49.7541 14.5165 49.9839 13.4666 50 12.4026C50.0003 12.2104 49.9628 12.0201 49.8895 11.8424C49.8163 11.6647 49.7088 11.5032 49.5731 11.367C49.4374 11.2309 49.2763 11.1228 49.0988 11.049C48.9214 10.9751 48.7312 10.937 48.539 10.9366L48.5365 10.9342ZM37.3741 42.7296C33.1745 45.6472 28.1618 47.1662 23.0491 47.0705C7.95505 47.0705 -2.59711 35.1516 5.98799 25.4229C7.31494 26.7774 8.91262 27.8367 10.6767 28.5319C12.4409 29.227 14.3318 29.5422 16.226 29.457C18.1202 29.3718 19.9752 28.8881 21.6697 28.0374C23.3643 27.1867 24.8604 25.9881 26.0604 24.52C26.1926 24.3525 26.2866 24.1582 26.3359 23.9506C26.3853 23.743 26.3886 23.5271 26.3459 23.3181C26.3031 23.109 26.2153 22.9118 26.0884 22.7403C25.9616 22.5687 25.7988 22.4269 25.6115 22.3247C24.0948 21.5228 22.8027 20.3544 21.8528 18.9258C20.9029 17.4972 20.3252 15.8537 20.1725 14.1449C20.0197 12.4361 20.2966 10.7163 20.978 9.1418C21.6595 7.56733 22.7238 6.18825 24.0742 5.13002C25.4245 4.07179 27.018 3.36801 28.7098 3.08272C30.4015 2.79742 32.1377 2.93966 33.7604 3.49651C35.3831 4.05335 36.8409 5.00711 38.001 6.27102C39.1611 7.53492 39.9868 9.06885 40.4028 10.7332C39.559 11.1668 38.8508 11.8244 38.3559 12.6339C37.861 13.4434 37.5986 14.3735 37.5974 15.3222V16.2623C37.5972 16.8082 37.7102 17.3481 37.9292 17.848C38.1483 18.348 38.4685 18.7971 38.8699 19.167C38.4477 19.7696 37.962 20.3251 37.4212 20.824C37.2631 20.9701 37.1391 21.1493 37.058 21.3488C36.977 21.5482 36.9408 21.7631 36.9522 21.9781C36.9636 22.1931 37.0221 22.403 37.1238 22.5928C37.2254 22.7826 37.3676 22.9477 37.5403 23.0763C44.9819 28.6079 44.905 37.2154 37.3741 42.737V42.7296ZM41.5563 17.2843C41.2835 17.2837 41.022 17.175 40.8291 16.9821C40.6362 16.7892 40.5275 16.5277 40.5269 16.2549V15.3148C40.5264 14.7378 40.7493 14.1831 41.1489 13.7669C41.5484 13.3507 42.0936 13.1054 42.67 13.0823L46.9093 13.6652C46.5428 14.776 45.8183 15.7338 44.8491 16.3887C43.88 17.0436 42.7236 17.3586 41.5563 17.2843Z" fill="white"/>
<path d="M32.9812 28.9428C31.846 28.3016 30.5307 28.0537 29.24 28.2376C27.9493 28.4215 26.7555 29.027 25.8447 29.9598C23.0987 32.6239 17.8797 33.1696 15.0147 33.2589C14.7923 33.266 14.5744 33.3236 14.3776 33.4274C14.1808 33.5312 14.0102 33.6785 13.8787 33.858C13.7473 34.0375 13.6584 34.2446 13.6188 34.4636C13.5793 34.6826 13.5901 34.9076 13.6504 35.1218C14.4767 37.2118 15.9458 38.9851 17.8456 40.1858C19.7454 41.3865 21.9776 41.9524 24.2199 41.8019C26.9258 41.8534 29.6026 41.2375 32.0138 40.0085C33.0194 39.5579 33.8961 38.8626 34.5638 37.986C35.2316 37.1094 35.669 36.0795 35.8363 34.9903C36.0534 33.8103 35.8947 32.5919 35.3825 31.5068C34.8702 30.4218 34.0303 29.525 32.9812 28.9428ZM32.9167 34.7472C32.7505 36.7317 29.2157 38.8748 24.2199 38.8748C22.9494 38.9303 21.6823 38.7044 20.5091 38.2135C19.3359 37.7225 18.2856 36.9785 17.4332 36.0347C21.2514 35.8591 24.9136 34.4685 27.8862 32.0658C28.3452 31.5634 28.9635 31.2345 29.6367 31.1346C30.3099 31.0348 30.997 31.17 31.5822 31.5176C32.2966 31.9046 33.0953 32.6239 32.9167 34.7472Z" fill="white"/>
</g>
</g>
<defs>
<clipPath id="clip0_538_7625">
<rect width="50" height="50" fill="white"/>
</clipPath>
<clipPath id="clip1_538_7625">
<rect width="50" height="50" fill="white"/>
</clipPath>
</defs>
</svg>
