<svg width="50" height="50" viewBox="0 0 50 50" fill="none" xmlns="http://www.w3.org/2000/svg">
<g clip-path="url(#clip0_538_7621)">
<path d="M46.5001 20.3914C47.6203 19.2713 48.5067 17.9397 49.1078 16.474C49.709 15.0084 50.0128 13.4379 50.0017 11.8538C49.9907 10.2696 49.6649 8.70354 49.0433 7.24643C48.4218 5.78932 47.5168 4.47026 46.3811 3.3659C44.7478 1.77818 42.6949 0.690185 40.4641 0.230024C38.2332 -0.230137 35.9173 -0.0433024 33.7891 0.768528C31.6609 1.58036 29.809 2.98338 28.4513 4.81239C27.0937 6.64141 26.287 8.82025 26.1261 11.0924C26.1013 11.4413 26.0641 11.7877 26.0145 12.1317C23.6701 10.4914 21.0956 9.20746 18.3748 8.32175C14.0688 7.04434 11.8117 8.12828 10.6856 9.26431C8.7583 11.1916 8.67396 14.6121 10.4375 18.9156C8.2765 19.715 6.31539 20.9753 4.69043 22.6089C2.99581 24.3038 1.70241 26.3568 0.905242 28.6171C0.10807 30.8774 -0.172621 33.2876 0.0837875 35.6706C0.340196 38.0536 1.12719 40.3489 2.38696 42.3878C3.64673 44.4268 5.34727 46.1577 7.36366 47.4533C9.38006 48.7489 11.6611 49.5763 14.0392 49.8748C16.4173 50.1733 18.832 49.9352 21.1061 49.1781C23.3801 48.421 25.4557 47.1641 27.1802 45.4997C28.9048 43.8353 30.2346 41.8057 31.072 39.56C32.8047 40.3292 34.669 40.7587 36.5636 40.825C37.3226 40.8645 38.0818 40.7509 38.796 40.491C39.5102 40.2311 40.1648 39.8301 40.7208 39.3119C41.8593 38.1734 42.9532 35.9113 41.6559 31.5929C40.768 28.8749 39.4834 26.3031 37.8435 23.9607C38.1594 23.9194 38.4777 23.8888 38.7985 23.8689C41.6988 23.6859 44.4327 22.4512 46.4877 20.3964L46.5001 20.3914ZM25.2976 43.2285C23.9046 44.6224 22.2152 45.6844 20.3552 46.3356C18.4953 46.9867 16.5124 47.2104 14.5541 46.9898C12.5958 46.7692 10.7124 46.1101 9.04388 45.0615C7.37535 44.0128 5.96462 42.6016 4.91653 40.9328C3.86844 39.2639 3.20996 37.3803 2.99002 35.4219C2.77008 33.4635 2.99433 31.4807 3.64613 29.621C4.29792 27.7612 5.36048 26.0722 6.75483 24.6796C8.14918 23.287 9.83947 22.2265 11.7001 21.577C12.216 22.5295 12.8014 23.4969 13.4363 24.4593C11.7857 24.906 10.2818 25.7795 9.07579 26.9918C8.00859 28.0581 7.20071 29.3553 6.71455 30.7835C6.22838 32.2116 6.07694 33.7323 6.2719 35.2283C6.46686 36.7243 7.00302 38.1554 7.83898 39.4112C8.67493 40.667 9.78831 41.7139 11.0932 42.4711C12.398 43.2282 13.8594 43.6754 15.3645 43.778C16.8696 43.8806 18.3782 43.6359 19.7737 43.0628C21.1692 42.4897 22.4144 41.6036 23.413 40.4729C24.4117 39.3421 25.1371 37.997 25.5333 36.5413C26.4957 37.1862 27.4605 37.7815 28.4155 38.2776C27.7613 40.1412 26.6956 41.8334 25.2976 43.2285ZM15.3463 27.0662C16.4531 28.474 17.6425 29.815 18.9081 31.0819C20.1728 32.3457 21.5113 33.5334 22.9164 34.6388C22.8078 35.7423 22.4354 36.8034 21.8305 37.7327C21.2257 38.662 20.4062 39.4322 19.4412 39.9782C18.4761 40.5243 17.3939 40.8302 16.2859 40.8701C15.1778 40.91 14.0764 40.6829 13.0745 40.2077C12.0727 39.7326 11.1999 39.0235 10.5297 38.1402C9.85947 37.2568 9.41158 36.2253 9.22379 35.1325C9.036 34.0397 9.11382 32.9178 9.45069 31.8614C9.78756 30.8051 10.3736 29.8452 11.1593 29.0629C12.2522 27.9581 13.6886 27.2582 15.2322 27.0786L15.3562 27.0587L15.3463 27.0662ZM38.8506 32.4313C39.5228 34.6885 39.4508 36.4421 38.6497 37.2408C37.6128 38.2776 35.1027 38.0941 31.9377 36.7447C27.8437 34.86 24.1296 32.2413 20.9792 29.0183C17.7518 25.8657 15.1297 22.1481 13.2429 18.0499C11.9035 14.8799 11.7125 12.3747 12.7493 11.3354C13.548 10.5368 15.2942 10.4623 17.5414 11.1296C20.3032 12.0519 22.8992 13.411 25.2307 15.1553C24.5665 16.9176 23.5369 18.5195 22.2095 19.8556L21.8896 20.1756C21.6153 20.4504 21.4612 20.8229 21.4612 21.2112C21.4612 21.5995 21.6153 21.9719 21.8896 22.2467L27.5945 27.9517C27.7306 28.0879 27.8923 28.1959 28.0702 28.2696C28.2481 28.3433 28.4387 28.3813 28.6313 28.3813C28.8239 28.3813 29.0145 28.3433 29.1924 28.2696C29.3703 28.1959 29.532 28.0879 29.6681 27.9517L29.74 27.8797C31.1668 26.4585 32.8894 25.3694 34.7852 24.6899C36.5437 27.0331 37.9147 29.6435 38.8456 32.4214L38.8506 32.4313ZM28.6809 24.8909L24.9752 21.1876C27.3783 18.4256 28.809 14.9515 29.048 11.2982C29.205 9.04937 30.2006 6.9414 31.8377 5.39158C33.4748 3.84176 35.6341 2.96304 37.8882 2.92935C40.2527 2.8728 42.5448 3.74764 44.2703 5.3653C45.9958 6.98295 47.0166 9.21387 47.1126 11.5771C47.2086 13.9404 46.3721 16.2468 44.7835 17.999C43.1948 19.7513 40.9812 20.8091 38.6199 20.9445C34.9673 21.1572 31.4804 22.541 28.6759 24.8909H28.6809Z" fill="white"/>
</g>
<defs>
<clipPath id="clip0_538_7621">
<rect width="50" height="50" fill="white"/>
</clipPath>
</defs>
</svg>
