<svg width="50" height="50" viewBox="0 0 50 50" fill="none" xmlns="http://www.w3.org/2000/svg">
<g clip-path="url(#clip0_538_7626)">
<g clip-path="url(#clip1_538_7626)">
<path d="M48.4227 22.3001L42.5063 16.376C43.6044 16.1032 44.6247 15.5802 45.4872 14.8479C46.3498 14.1155 47.0314 13.1937 47.4787 12.1543C47.9261 11.115 48.1271 9.98625 48.066 8.85637C48.0049 7.72648 47.6835 6.62601 47.1267 5.64092C46.57 4.65583 45.793 3.81279 44.8565 3.17767C43.9201 2.54254 42.8494 2.13252 41.7283 1.97964C40.6071 1.82677 39.4658 1.93516 38.3935 2.29637C37.3211 2.65758 36.3468 3.26182 35.5467 4.06188C34.6029 5.00605 33.9369 6.19157 33.6215 7.48878L27.7076 1.57738C27.0981 0.970968 26.2732 0.630554 25.4134 0.630554C24.5535 0.630554 23.7287 0.970968 23.1191 1.57738L14.4183 10.2782C14.3343 10.3618 14.2677 10.4611 14.2223 10.5705C14.1768 10.6799 14.1534 10.7972 14.1534 10.9157C14.1534 11.0342 14.1768 11.1515 14.2223 11.2609C14.2677 11.3703 14.3343 11.4696 14.4183 11.5532L15.4615 12.5964C15.5658 12.7024 15.6947 12.7809 15.8367 12.8248C15.9787 12.8688 16.1295 12.8769 16.2754 12.8484C17.1595 12.6744 18.0759 12.7778 18.899 13.1446C19.7221 13.5114 20.4117 14.1236 20.8735 14.8974C21.3354 15.6712 21.5468 16.5687 21.4789 17.4673C21.411 18.3659 21.0671 19.2215 20.4942 19.9171C19.9214 20.6127 19.1476 21.1143 18.2787 21.3532C17.4098 21.5922 16.4884 21.5568 15.6404 21.2519C14.7924 20.947 14.0594 20.3876 13.5415 19.6501C13.0237 18.9126 12.7465 18.0331 12.7477 17.132C12.7468 16.846 12.7746 16.5607 12.8308 16.2803C12.8589 16.1344 12.8506 15.9838 12.8067 15.8418C12.7627 15.6999 12.6845 15.5709 12.5789 15.4664L11.5357 14.4232C11.3665 14.2543 11.1372 14.1594 10.8982 14.1594C10.6591 14.1594 10.4298 14.2543 10.2607 14.4232L1.5775 23.1215C0.970475 23.7307 0.629639 24.5557 0.629639 25.4158C0.629639 26.2758 0.970475 27.1008 1.5775 27.71L7.49142 33.6239C6.22655 33.9345 5.067 34.5758 4.13163 35.4821C3.19625 36.3885 2.51869 37.5272 2.16838 38.7817C1.81808 40.0361 1.80763 41.3612 2.13811 42.621C2.46859 43.8808 3.1281 45.0301 4.04907 45.951C4.97004 46.872 6.11932 47.5315 7.37914 47.862C8.63896 48.1925 9.96399 48.182 11.2184 47.8317C12.4729 47.4814 13.6116 46.8039 14.518 45.8685C15.4243 44.9331 16.0656 43.7736 16.3762 42.5087L22.2901 48.4226C22.8993 49.0296 23.7243 49.3705 24.5844 49.3705C25.4444 49.3705 26.2694 49.0296 26.8786 48.4226L35.5794 39.7218C35.7484 39.5527 35.8433 39.3234 35.8433 39.0843C35.8433 38.8452 35.7484 38.6159 35.5794 38.4468L34.5362 37.4036C34.4318 37.2978 34.3029 37.2194 34.1609 37.1755C34.0189 37.1315 33.8683 37.1233 33.7223 37.1516C32.8034 37.3341 31.8502 37.2162 31.0034 36.8154C30.1567 36.4146 29.4613 35.752 29.0199 34.9257C28.5786 34.0993 28.4147 33.1529 28.5525 32.2262C28.6903 31.2996 29.1224 30.4418 29.7851 29.7796C30.4478 29.1174 31.3059 28.6859 32.2327 28.5487C33.1594 28.4116 34.1057 28.5762 34.9318 29.0182C35.7578 29.4601 36.4198 30.156 36.82 31.0031C37.2203 31.8501 37.3374 32.8034 37.1543 33.7222C37.1262 33.8677 37.1345 34.018 37.1784 34.1595C37.2224 34.3011 37.3007 34.4296 37.4063 34.5336L38.4494 35.5768C38.6186 35.7457 38.8479 35.8406 39.0869 35.8406C39.326 35.8406 39.5553 35.7457 39.7245 35.5768L48.4252 26.876C49.0317 26.2664 49.3721 25.4415 49.3721 24.5817C49.3721 23.7219 49.0317 22.897 48.4252 22.2875L48.4227 22.3001ZM47.1477 25.606L39.0844 33.6693L38.9988 33.5836C39.0274 33.347 39.0426 33.1089 39.0441 32.8705C39.0513 31.6086 38.6739 30.3744 37.9623 29.3323C37.2506 28.2902 36.2384 27.4896 35.0604 27.037C33.8824 26.5845 32.5945 26.5015 31.3681 26.7991C30.1418 27.0967 29.0352 27.7608 28.1957 28.7029C27.3561 29.6451 26.8235 30.8206 26.6686 32.073C26.5138 33.3254 26.7441 34.5953 27.3289 35.7135C27.9137 36.8318 28.8253 37.7454 29.9422 38.3327C31.0591 38.92 32.3285 39.1532 33.5812 39.0012L33.6669 39.0868L25.6036 47.1501C25.3323 47.4186 24.966 47.5693 24.5844 47.5693C24.2027 47.5693 23.8364 47.4186 23.5651 47.1501L16.3308 39.9133C16.2039 39.7865 16.0421 39.7004 15.866 39.6661C15.6899 39.6317 15.5076 39.6506 15.3423 39.7204C15.177 39.7902 15.0363 39.9077 14.9382 40.0579C14.84 40.208 14.7888 40.384 14.7912 40.5634C14.7912 40.634 14.7912 40.6944 14.7912 40.7448C14.7912 41.8412 14.4661 42.913 13.857 43.8246C13.2478 44.7363 12.3821 45.4468 11.3691 45.8664C10.3562 46.286 9.24156 46.3957 8.16622 46.1818C7.09089 45.9679 6.10313 45.44 5.32785 44.6647C4.55258 43.8894 4.02461 42.9017 3.81071 41.8263C3.59681 40.751 3.70659 39.6364 4.12617 38.6234C4.54574 37.6105 5.25627 36.7447 6.1679 36.1356C7.07952 35.5264 8.1513 35.2013 9.24771 35.2013H9.42661C9.60677 35.2063 9.78428 35.1572 9.93626 35.0603C10.0882 34.9634 10.2077 34.8233 10.2793 34.6579C10.3509 34.4925 10.3713 34.3094 10.3379 34.1323C10.3045 33.9552 10.2188 33.7922 10.0918 33.6643L2.85251 26.4375C2.58399 26.1663 2.43337 25.8 2.43337 25.4183C2.43337 25.0366 2.58399 24.6703 2.85251 24.399L10.9158 16.3357L11.0015 16.4214C10.9729 16.6581 10.9577 16.8961 10.9561 17.1345C10.9481 18.3979 11.3252 19.6338 12.0373 20.6775C12.7493 21.7211 13.7625 22.5231 14.9418 22.9764C16.1211 23.4297 17.4105 23.513 18.6383 23.215C19.8661 22.917 20.974 22.252 21.8143 21.3086C22.6546 20.3651 23.1875 19.188 23.342 17.934C23.4964 16.68 23.2651 15.4088 22.6789 14.2896C22.0926 13.1704 21.1792 12.2564 20.0604 11.6694C18.9416 11.0824 17.6705 10.8503 16.4165 11.0039L16.3308 10.9182L24.3941 2.85491C24.6654 2.58639 25.0317 2.43577 25.4134 2.43577C25.7951 2.43577 26.1613 2.58639 26.4326 2.85491L33.6669 10.0892C33.7954 10.2169 33.9594 10.3028 34.1375 10.336C34.3156 10.3691 34.4996 10.3479 34.6654 10.275C34.8313 10.2022 34.9714 10.081 35.0674 9.92746C35.1635 9.77386 35.211 9.59491 35.204 9.41389C35.204 9.36518 35.204 9.31226 35.204 9.25515C35.204 8.15874 35.5291 7.08696 36.1382 6.17534C36.7473 5.26371 37.6131 4.55318 38.6261 4.13361C39.639 3.71403 40.7536 3.60425 41.829 3.81815C42.9043 4.03205 43.8921 4.56002 44.6673 5.33529C45.4426 6.11056 45.9706 7.09832 46.1845 8.17366C46.3984 9.249 46.2886 10.3636 45.869 11.3766C45.4494 12.3895 44.7389 13.2553 43.8273 13.8644C42.9157 14.4735 41.8439 14.7987 40.7475 14.7987H40.5787C40.3985 14.7937 40.221 14.8428 40.069 14.9397C39.917 15.0365 39.7975 15.1767 39.726 15.3421C39.6544 15.5075 39.634 15.6906 39.6674 15.8677C39.7008 16.0448 39.7865 16.2078 39.9134 16.3357L47.1452 23.5599C47.4139 23.8316 47.5646 24.1983 47.5646 24.5805C47.5646 24.9626 47.4139 25.3293 47.1452 25.601L47.1477 25.606Z" fill="white" stroke="white"/>
</g>
</g>
<defs>
<clipPath id="clip0_538_7626">
<rect width="50" height="50" fill="white"/>
</clipPath>
<clipPath id="clip1_538_7626">
<rect width="50" height="50" fill="white"/>
</clipPath>
</defs>
</svg>
